<svg width="374" height="132" viewBox="0 0 374 132" fill="none" xmlns="http://www.w3.org/2000/svg">
<mask id="mask0_3258_16" style="mask-type:luminance" maskUnits="userSpaceOnUse" x="0" y="0" width="375" height="132">
<rect width="374.788" height="131.844" fill="white"/>
</mask>
<g mask="url(#mask0_3258_16)">
<mask id="mask1_3258_16" style="mask-type:luminance" maskUnits="userSpaceOnUse" x="-1" y="17" width="376" height="129">
<rect x="-0.0371094" y="17.4561" width="374.825" height="128.388" fill="white"/>
</mask>
<g mask="url(#mask1_3258_16)">
<path fill-rule="evenodd" clip-rule="evenodd" d="M283.074 133.256C287.337 126.019 291.355 116.841 287.231 113.802C275.69 105.229 275.69 133.585 263.82 119.408C257.556 112.154 244.037 72.2571 229.859 83.7981C217.659 93.6901 241.399 114.792 231.837 123.698C223.264 131.941 217.659 104.904 210.075 106.223C201.175 107.542 201.175 128.315 191.281 125.017C179.74 121.39 196.886 95.6721 183.368 92.7041C168.201 89.0771 167.868 114.795 159.628 120.071C157.979 118.423 157.65 116.444 156.99 113.806C155.012 106.882 148.747 72.2611 136.877 78.5261C122.699 86.1091 139.515 108.526 138.525 118.426C137.206 133.263 117.753 104.578 113.466 104.248C100.866 103.389 117.623 125.671 123.752 133.264L283.074 133.256Z" fill="#90CCD6"/>
<path fill-rule="evenodd" clip-rule="evenodd" d="M18.5597 22.9841C13.9277 22.9971 9.07269 23.9291 5.44672 26.9991C2.55444 29.6077 0.713013 33.1818 0.2677 37.0511C-0.0302124 39.2027 -0.0778809 41.3816 0.125732 43.5441C0.269104 45.9604 0.904419 48.322 1.99274 50.4841C4.3407 54.6091 8.23267 57.6312 12.8107 58.8841C17.0193 60.2112 21.5473 60.1195 25.6987 58.6231C28.6686 57.4311 31.2227 55.3927 33.0437 52.7611C36.6688 47.3796 37.6615 40.6458 35.7437 34.4471C34.8486 31.4561 33.1343 28.7753 30.7947 26.7081C28.1774 24.5304 24.939 23.2354 21.5417 23.0081C20.5499 22.9298 19.554 22.9194 18.5608 22.9771C18.1607 22.9991 18.1607 23.6171 18.5607 23.5951C22.0485 23.3097 25.5403 24.0943 28.5707 25.8441C31.1163 27.4485 33.1281 29.7727 34.3507 32.5221C36.8292 38.2192 36.6348 44.7252 33.8207 50.2641C32.4648 52.9809 30.3864 55.2714 27.8137 56.8841C24.505 58.7776 20.6693 59.5411 16.8877 59.0591C12.2106 58.6687 7.84125 56.5686 4.61475 53.1601C3.02014 51.3879 1.87402 49.259 1.27271 46.9521C0.761963 44.7836 0.544373 42.5564 0.625732 40.3301C0.542175 36.4508 1.70166 32.6464 3.93469 29.4731C6.51874 26.1141 10.5347 24.4161 14.6407 23.8521C15.9404 23.6818 17.2499 23.5983 18.5607 23.6021C18.7314 23.6021 18.8697 23.4638 18.8697 23.2931C18.8697 23.1225 18.7314 22.9841 18.5607 22.9841" fill="#003849"/>
<path fill-rule="evenodd" clip-rule="evenodd" d="M7.05408 26.7741C9.10608 27.9871 11.7401 28.5671 13.4311 30.3241C15.475 32.4471 12.8981 34.7781 11.2551 36.1241C10.3149 36.7928 9.51794 37.6428 8.91107 38.6241C8.35876 39.7226 8.23065 40.986 8.55109 42.1731C8.88348 43.2021 9.50903 44.1116 10.3511 44.7901C11.2156 45.4234 11.9568 46.2097 12.5381 47.1101C13.2841 48.5871 12.548 50.3551 11.6381 51.5791C10.4433 53.0368 8.97034 54.2423 7.30505 55.1251C7.17065 55.2169 7.13013 55.3969 7.21222 55.5375C7.29431 55.678 7.47113 55.7311 7.61707 55.6591C10.178 54.1591 13.282 51.8871 13.4551 48.6241C13.5941 46.0061 11.04 45.0531 9.72906 43.2241C8.94861 42.0774 8.77625 40.6223 9.26709 39.3251C9.83582 38.1888 10.6905 37.22 11.7471 36.5141C13.3951 35.1691 15.7911 32.9571 14.436 30.6211C13.66 29.536 12.5934 28.692 11.3591 28.1861C10.0411 27.5161 8.64508 26.9941 7.37006 26.2401C7.22382 26.1653 7.04462 26.2176 6.96155 26.3593C6.87848 26.5011 6.92035 26.683 7.05707 26.7741" fill="#003849"/>
<path fill-rule="evenodd" clip-rule="evenodd" d="M19.2072 23.5891C18.4512 25.8891 17.9391 28.7121 18.8622 31.0361C19.7402 33.2471 21.9172 33.9491 24.1061 34.0951C25.0022 34.0665 25.8972 34.1775 26.7592 34.4241C27.6882 34.8001 27.7012 35.7881 27.5502 36.6521C27.2621 38.3051 26.3372 39.6731 25.7881 41.2311C25.2737 42.7501 25.5192 44.4237 26.4482 45.7311C28.3052 48.6041 31.8192 48.4151 34.8262 48.7571C35.2212 48.8021 35.2172 48.1831 34.8262 48.1391C32.1772 47.8391 28.8732 48.0721 27.1262 45.6341C26.573 44.9053 26.2237 44.0424 26.1141 43.1341C26.0871 42.3349 26.2589 41.5415 26.6142 40.8251C27.3248 39.4955 27.8525 38.076 28.1832 36.6051C28.3896 35.8052 28.2114 34.9548 27.7012 34.3051C27.1435 33.8444 26.4445 33.5895 25.7212 33.5831C23.7592 33.3761 21.4582 33.5731 20.0572 31.8831C18.2812 29.7371 19.0192 26.1531 19.8082 23.7571C19.9332 23.3781 19.3362 23.2161 19.2082 23.5931" fill="#003849"/>
<path fill-rule="evenodd" clip-rule="evenodd" d="M15.3747 59.0081C17.1718 57.0746 18.0536 54.4633 17.7967 51.8361C17.4353 49.9013 16.8723 48.0096 16.1167 46.1921C15.4507 44.5893 15.243 42.8331 15.5167 41.1191C15.8807 39.7301 17.6847 38.4551 19.0667 39.3681C20.2327 40.1391 20.4437 42.0311 20.5967 43.2881C20.7967 44.9031 20.7967 46.5331 20.9847 48.1501C21.0685 48.7135 21.1823 49.272 21.3257 49.8231C21.5347 50.7651 21.3877 51.7641 21.6257 52.7061C21.7477 53.1741 22.0597 53.9061 22.5977 54.0251C23.0747 54.1251 23.4067 53.6891 23.6197 53.3311C23.9919 52.6121 24.3176 51.8699 24.5947 51.1092C24.7341 50.7586 24.9048 50.4212 25.1047 50.1011C25.3707 49.7011 25.5837 49.6531 26.0807 49.6281C28.8017 49.4951 29.7107 52.5441 30.5497 54.5851C30.6987 54.9481 31.2977 54.7851 31.1497 54.4211C30.4177 52.6401 29.6947 50.1681 27.7787 49.3061C26.9615 48.9193 26.0247 48.8704 25.1717 49.1701C24.6762 49.5411 24.3111 50.0596 24.1287 50.6511C23.8287 51.3311 23.5857 52.0401 23.2557 52.7071C23.0287 53.1661 22.8127 53.7071 22.4477 53.0781C22.0932 52.1326 21.9357 51.1247 21.9847 50.1161C21.9207 49.5161 21.7047 48.9451 21.6247 48.3411C21.4067 46.6851 21.4197 45.0061 21.2247 43.3481C21.0597 41.9551 20.8397 40.2601 19.8247 39.1981C18.7025 38.2259 17.0281 38.2553 15.9407 39.2661C14.6497 40.3521 14.6407 42.2361 14.8777 43.7661C15.2944 45.6557 15.8701 47.5066 16.5987 49.2991C17.119 50.7539 17.3182 52.3041 17.1827 53.8431C16.9328 55.6088 16.1507 57.2563 14.9407 58.5661C14.6807 58.8661 15.1157 59.3041 15.3787 59.0041" fill="#003849"/>
<path fill-rule="evenodd" clip-rule="evenodd" d="M5.54291 30.0051C5.87891 30.3421 6.18591 30.7051 6.5509 31.0141C6.61035 31.0702 6.68823 31.1026 6.76996 31.1051C6.85193 31.104 6.93036 31.0714 6.98895 31.0141C7.10754 30.8922 7.10754 30.698 6.98895 30.5761C6.6239 30.2701 6.31592 29.9041 5.98096 29.5671C5.85999 29.4465 5.66412 29.4468 5.54352 29.5677C5.42285 29.6886 5.42303 29.8844 5.54395 30.0051" fill="#003849"/>
<path fill-rule="evenodd" clip-rule="evenodd" d="M10.9003 33.1611L10.2072 33.8541C10.15 33.9127 10.1174 33.9911 10.1162 34.0731C10.1162 34.2437 10.2546 34.3821 10.4252 34.3821C10.5068 34.3803 10.5846 34.3478 10.6432 34.2911L11.3372 33.5981C11.3942 33.5393 11.4263 33.4609 11.4272 33.3791C11.4275 33.297 11.395 33.2183 11.337 33.1603C11.2791 33.1023 11.2003 33.0698 11.1182 33.0701C11.0364 33.0717 10.9582 33.1042 10.8992 33.1611" fill="#003849"/>
<path fill-rule="evenodd" clip-rule="evenodd" d="M3.90368 36.8794C4.03064 37.0051 4.15686 37.1317 4.28241 37.2594C4.3413 37.3165 4.41989 37.3488 4.50183 37.3496C4.54324 37.3515 4.58433 37.3425 4.62109 37.3235C4.65937 37.3109 4.6938 37.2888 4.72132 37.2594C4.77929 37.201 4.81201 37.1221 4.8125 37.0398C4.81097 36.9577 4.77844 36.8792 4.72132 36.8203L4.34253 36.4403C4.28351 36.3835 4.20505 36.3512 4.1231 36.3501C4.08176 36.3482 4.04067 36.3572 4.00391 36.3762C3.96569 36.3889 3.93126 36.411 3.90368 36.4403C3.84577 36.4988 3.81305 36.5776 3.8125 36.6599C3.81409 36.742 3.84669 36.8204 3.90368 36.8794Z" fill="#003849"/>
<path fill-rule="evenodd" clip-rule="evenodd" d="M5.68341 43.0591L5.65039 43.1031L5.69836 43.0411C5.53839 43.2482 5.35254 43.4341 5.14539 43.5941L5.20441 43.5491L5.1604 43.5831C5.12531 43.6022 5.0954 43.6297 5.07336 43.6631C5.04663 43.693 5.02771 43.729 5.01837 43.7681C4.99713 43.8484 5.00824 43.9339 5.04938 44.0061C5.09021 44.0757 5.15656 44.1266 5.23438 44.1481C5.31458 44.1713 5.40082 44.1601 5.47241 44.1171C5.75934 43.9128 6.01013 43.662 6.21436 43.3751C6.25616 43.3031 6.26733 43.2173 6.24536 43.1371C6.224 43.0587 6.17358 42.9915 6.10437 42.9491C6.03235 42.9075 5.94666 42.8964 5.86639 42.9181L5.79236 42.9491C5.74664 42.9761 5.70843 43.0143 5.6814 43.0601" fill="#003849"/>
<path fill-rule="evenodd" clip-rule="evenodd" d="M6.58038 50.905H8.47241C8.64264 50.9041 8.78033 50.6805 8.78033 50.405C8.78033 50.1296 8.64264 49.906 8.47241 49.905H6.58038C6.41016 49.906 6.27246 50.1296 6.27246 50.405C6.27246 50.6805 6.41016 50.9041 6.58038 50.905Z" fill="#003849"/>
<path fill-rule="evenodd" clip-rule="evenodd" d="M17.7691 43.687C18.0468 43.3765 18.3416 43.0817 18.6521 42.804C18.7102 42.7459 18.7429 42.6672 18.7431 42.585C18.7424 42.503 18.7097 42.4244 18.6521 42.366C18.5939 42.308 18.5153 42.2753 18.4331 42.275C18.3519 42.2797 18.2747 42.3118 18.2141 42.366C17.9038 42.6439 17.609 42.9387 17.3311 43.249C17.2101 43.3697 17.21 43.5656 17.3306 43.6865C17.4513 43.8075 17.6472 43.8077 17.7681 43.687" fill="#003849"/>
<path fill-rule="evenodd" clip-rule="evenodd" d="M18.0263 48.4001C18.4177 48.5857 18.8217 48.7434 19.2353 48.8721C19.3997 48.9163 19.5692 48.82 19.6153 48.6561C19.6567 48.492 19.5615 48.3245 19.3994 48.2761C19.2133 48.2141 19.0263 48.1511 18.8423 48.0831L18.7113 48.0331L18.6303 48.0001C18.6123 47.9931 18.5473 47.9711 18.6234 48.0001C18.5261 47.9618 18.4313 47.9177 18.3393 47.8681C18.1919 47.7819 18.0025 47.8316 17.9163 47.9791C17.8301 48.1265 17.8799 48.3159 18.0273 48.4021" fill="#003849"/>
<path fill-rule="evenodd" clip-rule="evenodd" d="M19.4291 55.4801C19.2945 55.7491 19.1841 56.0291 19.0495 56.2991C19.0096 56.3718 18.9986 56.4567 19.0185 56.5371C19.0407 56.6146 19.0916 56.6808 19.161 56.7221C19.2336 56.7659 19.3209 56.7785 19.403 56.7571C19.4815 56.7367 19.5485 56.6855 19.5887 56.6151C19.7232 56.3451 19.8336 56.0651 19.9682 55.7961C20.0079 55.7234 20.019 55.6386 19.9993 55.5581C19.9769 55.4808 19.9259 55.4147 19.8567 55.3731C19.7844 55.3316 19.6984 55.3204 19.6178 55.3421C19.5395 55.3633 19.4728 55.4143 19.4321 55.4841" fill="#003849"/>
<path fill-rule="evenodd" clip-rule="evenodd" d="M25.6649 55.2831C25.9989 55.403 26.3469 55.4812 26.6739 55.6215C26.7542 55.645 26.8399 55.6331 26.9119 55.5883C26.9827 55.5441 27.0343 55.4715 27.0551 55.3865C27.0759 55.3015 27.0643 55.2111 27.0229 55.1353C26.9789 55.0639 26.9137 55.0103 26.8379 54.9832C26.5109 54.8429 26.1629 54.7691 25.8299 54.6448C25.6652 54.5975 25.4955 54.7005 25.4489 54.8761C25.4081 55.0518 25.5031 55.2308 25.6649 55.2831" fill="#003849"/>
<path fill-rule="evenodd" clip-rule="evenodd" d="M32.9053 43.3121C32.4818 43.7953 32.1552 44.3555 31.9433 44.9621C31.8992 45.1265 31.9954 45.2959 32.1594 45.3421C32.3236 45.3828 32.4909 45.2873 32.5393 45.1251C32.5613 45.0591 32.5853 44.9921 32.6103 44.9251L32.6303 44.8761C32.6623 44.7981 32.6143 44.9101 32.6303 44.8661L32.6733 44.7711C32.7333 44.6411 32.8013 44.5151 32.8733 44.3921C32.9453 44.2691 33.0193 44.1591 33.0993 44.0471L33.1603 43.9641L33.1833 43.9341C33.1613 43.9631 33.1953 43.9191 33.1993 43.9151C33.2443 43.8581 33.2903 43.8021 33.3373 43.7471C33.4583 43.6264 33.4585 43.4306 33.3378 43.3096C33.2172 43.1887 33.0212 43.1884 32.9003 43.3091" fill="#003849"/>
<path fill-rule="evenodd" clip-rule="evenodd" d="M29.8889 39.377C30.1769 39.4956 30.4716 39.5919 30.7709 39.6652C30.9366 39.717 31.1076 39.6053 31.1529 39.4158C31.1982 39.2263 31.1006 39.0307 30.9349 38.9789C30.6356 38.9056 30.3409 38.8093 30.0529 38.6907C29.9727 38.6652 29.8868 38.678 29.8149 38.7261C29.7459 38.7737 29.6952 38.8492 29.6729 38.9377C29.6512 39.0296 29.6624 39.1275 29.7039 39.21C29.748 39.2862 29.8131 39.3434 29.8889 39.3724" fill="#003849"/>
<path fill-rule="evenodd" clip-rule="evenodd" d="M30.3425 31.0281C30.2104 31.421 30.1134 31.8222 30.0525 32.2281C30.0303 32.3087 30.0435 32.3935 30.0893 32.4661C30.1614 32.5737 30.3007 32.6331 30.4427 32.6169C30.5848 32.6008 30.7018 32.5122 30.7396 32.3921C30.8009 31.9863 30.8979 31.5851 31.0297 31.1921C31.0805 31.0277 30.9697 30.8583 30.7811 30.8121C30.5922 30.7708 30.3994 30.866 30.3437 31.0281" fill="#003849"/>
<path fill-rule="evenodd" clip-rule="evenodd" d="M23.1955 28.726C23.5603 28.9598 23.9394 29.1705 24.3304 29.357C24.4779 29.4432 24.6673 29.3935 24.7535 29.246C24.8396 29.0986 24.7899 28.9092 24.6425 28.823C24.2512 28.6369 23.8721 28.4262 23.5074 28.192C23.3598 28.1075 23.1716 28.1569 23.0845 28.303C23.0027 28.4511 23.0516 28.6372 23.1955 28.726Z" fill="#003849"/>
<path fill-rule="evenodd" clip-rule="evenodd" d="M63.4377 88.1581C61.7448 86.3099 59.3705 85.2331 56.8647 85.1771C54.3306 85.1758 52.0386 86.6823 51.0347 89.0091C48.8347 93.5581 49.8297 100.134 53.9237 103.309C57.8077 106.324 63.4407 105.954 67.7987 104.267C70.303 103.32 72.4178 101.562 73.8057 99.2721C75.2429 96.9944 75.8569 94.2933 75.5457 91.6181C75.0995 88.8279 73.0931 86.5407 70.3847 85.7351C67.7457 84.9551 64.5436 85.6881 63.0746 88.1561C63.0027 88.3021 63.0558 88.4789 63.1963 88.561C63.3368 88.6431 63.5169 88.6025 63.6087 88.4681C64.8797 86.3331 67.6087 85.6831 69.9087 86.2471C72.2506 86.8252 74.1036 88.6133 74.7647 90.9331C75.2924 93.3484 74.9376 95.8728 73.7647 98.0491C72.6868 100.271 70.9095 102.078 68.7057 103.192C64.8837 105.119 59.6057 105.735 55.7057 103.717C51.3307 101.455 49.7817 95.9171 50.8617 91.3411C51.4897 88.6801 53.1747 86.1641 56.0807 85.8311C58.6905 85.6246 61.2477 86.6449 62.9987 88.5911C63.2677 88.8851 63.7037 88.4471 63.4367 88.1531" fill="#003849"/>
<path fill-rule="evenodd" clip-rule="evenodd" d="M63.5358 88.0111C63.7117 85.1751 63.8118 80.7051 67.2698 79.9001C67.6567 79.8091 67.4938 79.2141 67.1057 79.3001C63.3168 80.1821 63.1138 84.8701 62.9177 88.0071C62.8928 88.4071 63.5107 88.4071 63.5358 88.0071" fill="#003849"/>
<path fill-rule="evenodd" clip-rule="evenodd" d="M63.8866 83.9501C63.9542 83.0951 63.6777 82.2485 63.1187 81.5981C62.6482 80.8698 61.9211 80.3451 61.0816 80.1281C60.6602 80.0819 60.238 80.2084 59.9114 80.4788C59.5848 80.7492 59.3818 81.1404 59.3486 81.5631C59.3563 82.5135 59.9008 83.3778 60.7546 83.7951C61.6135 84.4302 62.7214 84.6236 63.7446 84.3171C63.8908 84.23 63.9402 84.0418 63.8557 83.8941C63.7668 83.7502 63.5807 83.7014 63.4326 83.7831C63.3113 83.8246 63.1854 83.8515 63.0576 83.8631C62.8906 83.8726 62.723 83.8646 62.5576 83.8391C62.1526 83.7714 61.761 83.6394 61.3976 83.4481C60.7866 83.1311 60.0526 82.5761 59.9636 81.8801C59.942 81.5612 60.0464 81.2466 60.2546 81.0041C60.3348 80.9046 60.4377 80.8257 60.5546 80.7741C60.6595 80.7291 60.7742 80.7119 60.8876 80.7241C60.9046 80.7241 60.9876 80.7331 60.9656 80.7301L61.0457 80.7461C61.1234 80.7645 61.1999 80.7879 61.2747 80.8161C61.4143 80.8761 61.5482 80.9488 61.6746 81.0331C61.9752 81.238 62.2447 81.4852 62.4746 81.7671C62.7393 82.0806 62.9563 82.4314 63.1187 82.8081C63.1906 82.9848 63.2455 83.168 63.2827 83.3551C63.2973 83.4295 63.3047 83.5052 63.3046 83.5811C63.3046 83.6231 63.3046 83.6641 63.3046 83.7051C63.3046 83.7201 63.3046 83.7351 63.3046 83.7511C63.2976 83.8511 63.3156 83.6931 63.3046 83.7871C63.2644 83.951 63.3592 84.1178 63.5206 84.1671C63.685 84.2107 63.854 84.1146 63.9006 83.9511" fill="#003849"/>
<path fill-rule="evenodd" clip-rule="evenodd" d="M60.8092 81.9541C61.5617 82.7869 62.3997 83.5384 63.3092 84.1961C63.4567 84.2822 63.6461 84.2325 63.7322 84.0851C63.8184 83.9376 63.7687 83.7482 63.6212 83.6621C62.7567 83.0322 61.9609 82.3129 61.2472 81.5161C61.1249 81.4038 60.9358 81.4078 60.8184 81.5253C60.7009 81.6427 60.6969 81.8318 60.8092 81.9541" fill="#003849"/>
<path fill-rule="evenodd" clip-rule="evenodd" d="M55.949 87.7131C55.0982 87.9939 54.3614 88.543 53.849 89.2781C53.3757 90.0308 53.0825 90.8825 52.9921 91.7671C52.9534 91.9308 53.0476 92.0965 53.208 92.1471C53.3727 92.1913 53.5424 92.0951 53.5891 91.9311C53.6678 91.1314 53.9214 90.3588 54.332 89.6681C54.7581 89.0286 55.3856 88.5498 56.1151 88.3081C56.488 88.1771 56.328 87.579 55.9511 87.708" fill="#003849"/>
<path fill-rule="evenodd" clip-rule="evenodd" d="M245.793 104.242C247.898 110.461 250.026 116.673 252.177 122.877C254.151 128.577 256.135 134.277 258.185 139.949C258.871 141.849 259.552 143.749 260.301 145.622C260.329 145.713 260.396 145.786 260.484 145.822C260.572 145.858 260.672 145.852 260.755 145.807C264.289 144.222 267.976 142.966 271.619 141.66C276.262 139.996 280.912 138.346 285.505 136.546C287.995 135.57 290.469 134.546 292.905 133.446C293.026 133.375 293.084 133.232 293.047 133.097C289.785 123.031 286.495 112.987 282.579 103.153C281.318 99.988 280.018 96.838 278.704 93.696C278.655 93.5342 278.488 93.4392 278.324 93.48C268.586 96.308 258.955 99.48 249.356 102.746C248.243 103.124 247.133 103.515 246.012 103.866C245.634 103.985 245.795 104.582 246.177 104.466C248.8 103.643 251.39 102.707 253.994 101.829C258.845 100.195 263.711 98.6087 268.594 97.07C271.883 96.04 275.183 95.0434 278.494 94.08L278.113 93.864C282.154 103.527 285.886 113.273 289.177 123.218C290.284 126.563 291.377 129.912 292.456 133.266L292.598 132.917C283.887 136.881 274.748 139.786 265.798 143.135C263.998 143.808 262.205 144.497 260.453 145.282L260.908 145.467C259.279 141.393 257.863 137.228 256.408 133.092C254.2 126.829 252.023 120.556 249.876 114.273C248.712 110.88 247.555 107.484 246.404 104.087C246.277 103.712 245.679 103.873 245.804 104.251" fill="#003849"/>
<path fill-rule="evenodd" clip-rule="evenodd" d="M251.028 102.48C252.664 107.343 254.316 112.2 255.984 117.053C258.05 123.104 260.123 129.154 262.203 135.201C263.136 137.906 264.069 140.611 265.003 143.315C265.133 143.689 265.729 143.528 265.603 143.151C263.771 137.858 261.948 132.561 260.135 127.262C258.105 121.337 256.08 115.411 254.06 109.484C253.247 107.096 252.437 104.707 251.631 102.317C251.504 101.942 250.907 102.102 251.031 102.481" fill="#003849"/>
<path fill-rule="evenodd" clip-rule="evenodd" d="M267.724 109.154C264.287 110.354 263.258 110.589 261.28 112.506C260.229 113.557 260.229 115.288 261.96 115.412C263.876 115.536 266.597 114.299 268.39 113.619C270.306 112.877 272.161 112.012 273.954 111.146C275.005 110.59 276.241 110.033 276.18 108.735C276.056 106.509 272.223 107.251 267.725 109.154" fill="#003849"/>
<path fill-rule="evenodd" clip-rule="evenodd" d="M264.537 122.629C269.374 121.012 274.128 119.163 278.88 117.312C279.246 117.169 279.087 116.571 278.715 116.712C273.964 118.563 269.21 120.412 264.372 122.029C263.997 122.155 264.157 122.752 264.537 122.629Z" fill="#003849"/>
<path fill-rule="evenodd" clip-rule="evenodd" d="M263.232 119.873C268.069 118.256 272.823 116.407 277.575 114.556C277.941 114.413 277.782 113.815 277.41 113.956C272.659 115.807 267.905 117.656 263.067 119.273C262.692 119.399 262.852 119.996 263.232 119.873Z" fill="#003849"/>
<path fill-rule="evenodd" clip-rule="evenodd" d="M283.152 38.5261C280.711 41.1041 280.527 45.3631 282.026 48.4591C284.166 52.315 288.761 54.0842 292.935 52.6591C296.568 51.2196 299.126 47.9117 299.605 44.0331C299.809 40.156 297.518 36.5805 293.91 35.1461C292.141 34.367 290.16 34.2105 288.291 34.7021C286.168 35.3629 284.336 36.733 283.103 38.583C282.871 38.9061 283.403 39.2161 283.637 38.8951C285.72 35.9951 289.068 34.3321 292.621 35.3381C296.046 36.2636 298.569 39.1716 299.003 42.693C299.093 46.1841 297.304 49.4554 294.317 51.264C292.486 52.4783 290.226 52.8612 288.097 52.3181C286.146 51.8605 284.407 50.7571 283.162 49.1871C281.126 46.2961 281.09 41.6041 283.586 38.9671C283.86 38.6781 283.423 38.2401 283.149 38.5291" fill="#003849"/>
<path fill-rule="evenodd" clip-rule="evenodd" d="M285.365 40.2151C283.28 42.3621 283.575 46.8071 285.875 48.6451C287.975 50.2451 290.504 50.8811 292.946 49.4791C296.518 47.4351 298.356 42.4921 294.718 39.1381C293.427 37.8289 291.606 37.1867 289.779 37.3971C287.953 37.6074 286.325 38.6468 285.365 40.2151" fill="#5596A5"/>
<path fill-rule="evenodd" clip-rule="evenodd" d="M286.752 46.166C287.038 44.966 287.325 43.7633 287.612 42.558C287.705 42.171 287.112 42.007 287.012 42.394C286.726 43.594 286.439 44.7967 286.152 46.002C286.06 46.389 286.652 46.554 286.752 46.166Z" fill="#003849"/>
<path fill-rule="evenodd" clip-rule="evenodd" d="M289.614 47.557C290.251 44.887 290.928 42.225 291.565 39.557C291.658 39.17 291.065 39.006 290.964 39.393C290.328 42.064 289.651 44.725 289.014 47.393C288.922 47.78 289.514 47.944 289.614 47.557Z" fill="#003849"/>
<path fill-rule="evenodd" clip-rule="evenodd" d="M293.192 44.997C293.365 44.27 293.497 43.533 293.712 42.816C293.757 42.6504 293.66 42.4793 293.494 42.4341C293.328 42.3888 293.157 42.4864 293.112 42.652C292.897 43.369 292.765 44.106 292.592 44.833C292.547 44.9987 292.644 45.1697 292.81 45.215C292.976 45.2603 293.147 45.1627 293.192 44.997Z" fill="#003849"/>
<path fill-rule="evenodd" clip-rule="evenodd" d="M297.482 48.8791C300.375 49.9861 303.304 51.0061 306.243 51.9791C307.838 52.6246 309.541 52.9638 311.263 52.9791C312.162 52.9291 314.104 52.6371 314.409 51.5931C314.808 50.2191 312.525 49.2701 311.615 48.8621C309.397 47.9186 307.106 47.1567 304.765 46.5841C302.897 46.0424 300.999 45.6136 299.081 45.3001C298.692 45.2461 298.523 45.8421 298.915 45.9001C300.351 46.1327 301.774 46.4398 303.178 46.8201C305.376 47.3434 307.544 47.9857 309.672 48.7441C310.602 49.0687 311.505 49.4656 312.373 49.9311C312.841 50.1921 313.573 50.5661 313.779 51.1061C314.1 51.9351 312.219 52.2441 311.672 52.3241C309.993 52.4314 308.313 52.1497 306.762 51.5011C303.702 50.4941 300.652 49.4321 297.645 48.2801C297.273 48.1381 297.111 48.7351 297.48 48.8801" fill="#003849"/>
<path fill-rule="evenodd" clip-rule="evenodd" d="M109.033 107.782C106.333 99.596 94.9991 99.105 88.55 102.757C87.7669 103.195 87.035 103.72 86.368 104.32C86.0327 104.623 85.7198 104.95 85.4321 105.299C85.2 105.569 85.0859 105.92 85.1151 106.275C85.045 108.028 84.989 109.781 84.936 111.534C84.7934 116.264 84.6744 120.994 84.579 125.725C84.497 129.751 84.361 133.79 84.45 137.817C84.4523 137.927 84.512 138.027 84.6071 138.082C84.7023 138.137 84.8192 138.137 84.915 138.084C90.558 135.377 97.497 133.015 103.715 135.084C105.538 135.701 107.203 136.71 108.593 138.04C108.693 138.138 108.846 138.157 108.968 138.088C111.852 135.827 115.382 134.547 119.045 134.433C122.182 134.506 125.265 135.257 128.085 136.633C129.668 137.349 131.199 138.172 132.715 139.019C132.811 139.073 132.928 139.072 133.023 139.018C133.119 138.963 133.178 138.862 133.18 138.752V104.978C133.18 104.61 133.28 104.149 133.027 103.865C132.562 103.443 132.04 103.089 131.477 102.813C127.456 100.506 122.738 99.728 118.189 100.622C114.209 101.37 109.64 103.58 108.433 107.783C108.388 107.949 108.485 108.12 108.651 108.165C108.817 108.21 108.988 108.113 109.033 107.947C109.903 104.918 112.775 102.978 115.601 101.962C119.15 100.715 122.989 100.546 126.633 101.478C128.837 102.035 130.907 103.028 132.72 104.4L132.567 104.133V138.758L133.032 138.491C127.398 135.34 121.067 132.515 114.532 134.506C112.416 135.182 110.431 136.214 108.662 137.558L109.037 137.606C106.592 135.32 103.427 133.96 100.086 133.758C96.6396 133.607 93.1976 134.144 89.9611 135.338C88.1331 135.967 86.3445 136.706 84.6051 137.55L85.071 137.817C84.998 134.56 85.095 131.295 85.155 128.039C85.2397 123.444 85.347 118.85 85.4771 114.256C85.5317 112.305 85.5917 110.355 85.657 108.406C85.6824 107.667 85.7097 106.928 85.7391 106.188C85.7681 105.488 86.7191 104.808 87.246 104.38C90.4138 102.034 94.3263 100.918 98.2551 101.242C102.598 101.499 106.996 103.569 108.439 107.942C108.563 108.318 109.16 108.157 109.039 107.778" fill="#003849"/>
<path fill-rule="evenodd" clip-rule="evenodd" d="M108.425 107.864C108.425 116.057 108.495 124.251 108.528 132.444C108.533 134.065 108.538 135.685 108.542 137.306C108.543 137.476 108.74 137.614 108.983 137.614C109.227 137.614 109.424 137.476 109.425 137.306C109.425 129.113 109.355 120.92 109.322 112.726C109.315 111.106 109.31 109.486 109.308 107.865C109.307 107.695 109.109 107.557 108.866 107.557C108.623 107.557 108.426 107.695 108.425 107.865" fill="#003849"/>
<path fill-rule="evenodd" clip-rule="evenodd" d="M87.8979 109.43C88.3685 108.786 89.1525 108.449 89.9438 108.55C90.5779 108.711 91.1599 109.056 91.7839 109.25C93.2839 109.72 94.3379 109.168 95.6149 108.431C96.3016 107.978 97.1072 107.739 97.9299 107.744C98.8856 107.911 99.8036 108.248 100.64 108.739C101.345 109.158 102.162 109.349 102.979 109.285C103.818 109.127 104.459 108.479 105.279 108.263C105.445 108.218 105.542 108.047 105.497 107.881C105.452 107.715 105.281 107.618 105.115 107.663C104.252 107.889 103.505 108.678 102.601 108.702C101.585 108.559 100.613 108.197 99.7509 107.642C98.3281 106.93 96.6341 107.025 95.3009 107.894C94.7177 108.307 94.067 108.616 93.3779 108.806C92.5344 108.863 91.6922 108.677 90.9519 108.268C90.4565 108.003 89.9017 107.869 89.3399 107.878C88.6071 108.027 87.9453 108.417 87.4599 108.986C87.1749 109.264 87.6119 109.701 87.8979 109.424" fill="#003849"/>
<path fill-rule="evenodd" clip-rule="evenodd" d="M87.8973 113.576C88.3682 112.932 89.152 112.595 89.9432 112.697C90.5773 112.858 91.1593 113.203 91.7833 113.397C93.2833 113.867 94.3373 113.315 95.6143 112.577C96.301 112.124 97.1067 111.885 97.9293 111.891C98.885 112.057 99.803 112.394 100.639 112.885C101.344 113.303 102.161 113.494 102.978 113.431C103.817 113.275 104.458 112.625 105.278 112.409C105.444 112.364 105.542 112.193 105.496 112.027C105.451 111.861 105.28 111.764 105.114 111.809C104.251 112.036 103.503 112.824 102.6 112.848C101.585 112.705 100.612 112.343 99.7502 111.788C98.3275 111.075 96.6335 111.171 95.3003 112.04C94.7173 112.454 94.0665 112.762 93.3773 112.952C92.5338 113.01 91.6917 112.823 90.9513 112.415C90.4559 112.15 89.9011 112.016 89.3393 112.025C88.6066 112.174 87.9447 112.563 87.4593 113.132C87.1733 113.41 87.6113 113.847 87.8973 113.57" fill="#003849"/>
<path fill-rule="evenodd" clip-rule="evenodd" d="M87.8973 117.722C88.368 117.078 89.152 116.741 89.9432 116.843C90.5773 117.004 91.1593 117.349 91.7833 117.543C93.2833 118.013 94.3373 117.461 95.6143 116.724C96.3009 116.271 97.1066 116.032 97.9293 116.037C98.885 116.204 99.803 116.541 100.639 117.032C101.344 117.451 102.161 117.641 102.978 117.578C103.817 117.419 104.458 116.772 105.278 116.556C105.444 116.511 105.542 116.34 105.496 116.174C105.451 116.008 105.28 115.911 105.114 115.956C104.251 116.183 103.504 116.971 102.6 116.995C101.585 116.852 100.612 116.49 99.7502 115.935C98.3276 115.222 96.6334 115.318 95.3003 116.187C94.717 116.6 94.0663 116.909 93.3773 117.099C92.5338 117.156 91.6917 116.969 90.9513 116.561C90.4559 116.296 89.9011 116.162 89.3393 116.171C88.6066 116.32 87.9447 116.71 87.4593 117.278C87.1733 117.556 87.6113 117.993 87.8973 117.716" fill="#003849"/>
<path fill-rule="evenodd" clip-rule="evenodd" d="M87.8979 121.87C88.3685 121.226 89.1525 120.889 89.9438 120.99C90.5779 121.152 91.1599 121.496 91.7839 121.69C93.2839 122.16 94.3379 121.608 95.6149 120.87C96.3016 120.417 97.1072 120.178 97.9299 120.183C98.8856 120.349 99.8036 120.686 100.64 121.178C101.345 121.596 102.162 121.787 102.979 121.724C103.818 121.568 104.46 120.918 105.279 120.702C105.445 120.657 105.542 120.486 105.497 120.32C105.452 120.154 105.281 120.057 105.115 120.102C104.253 120.329 103.504 121.118 102.601 121.141C101.585 120.998 100.613 120.636 99.7509 120.081C98.3281 119.368 96.6341 119.464 95.3009 120.333C94.7177 120.746 94.067 121.055 93.3779 121.245C92.5343 121.303 91.6921 121.116 90.9519 120.707C90.4565 120.442 89.9017 120.308 89.3399 120.317C88.6071 120.466 87.9453 120.856 87.4599 121.425C87.1749 121.703 87.6119 122.14 87.8979 121.863" fill="#003849"/>
<path fill-rule="evenodd" clip-rule="evenodd" d="M87.8973 126.016C88.368 125.372 89.152 125.035 89.9432 125.137C90.5773 125.298 91.1593 125.643 91.7833 125.837C93.2833 126.307 94.3373 125.755 95.6143 125.017C96.301 124.564 97.1067 124.325 97.9293 124.331C98.8851 124.497 99.8031 124.834 100.639 125.326C101.344 125.744 102.161 125.935 102.978 125.872C103.817 125.716 104.458 125.066 105.278 124.85C105.444 124.805 105.542 124.634 105.496 124.468C105.451 124.302 105.28 124.205 105.114 124.25C104.251 124.477 103.504 125.265 102.6 125.289C101.585 125.146 100.612 124.784 99.7502 124.229C98.3276 123.516 96.6334 123.612 95.3003 124.481C94.7173 124.895 94.0665 125.203 93.3773 125.393C92.5338 125.451 91.6917 125.264 90.9513 124.856C90.4559 124.591 89.9011 124.457 89.3393 124.466C88.6066 124.615 87.9447 125.004 87.4593 125.573C87.1733 125.851 87.6113 126.288 87.8973 126.011" fill="#003849"/>
<path fill-rule="evenodd" clip-rule="evenodd" d="M87.8979 130.163C88.3685 129.519 89.1525 129.182 89.9438 129.283C90.5779 129.444 91.1599 129.789 91.7839 129.983C93.2839 130.453 94.3379 129.901 95.6149 129.164C96.3016 128.711 97.1072 128.472 97.9299 128.477C98.8856 128.643 99.8036 128.98 100.64 129.472C101.345 129.891 102.162 130.082 102.979 130.018C103.818 129.86 104.459 129.212 105.279 128.996C105.445 128.951 105.542 128.78 105.497 128.614C105.452 128.448 105.281 128.351 105.115 128.396C104.252 128.623 103.505 129.411 102.601 129.435C101.585 129.292 100.613 128.93 99.7509 128.375C98.3282 127.662 96.634 127.758 95.3009 128.627C94.7177 129.04 94.067 129.349 93.3779 129.539C92.5344 129.596 91.6922 129.409 90.9519 129.001C90.4565 128.736 89.9017 128.602 89.3399 128.611C88.6071 128.76 87.9453 129.15 87.4599 129.719C87.1749 129.997 87.6119 130.434 87.8979 130.157" fill="#003849"/>
<path fill-rule="evenodd" clip-rule="evenodd" d="M111.615 109.43C112.086 108.786 112.87 108.449 113.661 108.55C114.295 108.711 114.877 109.056 115.502 109.25C117.002 109.72 118.056 109.168 119.332 108.431C120.019 107.978 120.824 107.739 121.647 107.744C122.603 107.911 123.521 108.248 124.357 108.739C125.062 109.157 125.878 109.348 126.695 109.285C127.534 109.129 128.176 108.479 128.995 108.263C129.161 108.218 129.258 108.047 129.213 107.881C129.168 107.715 128.997 107.618 128.831 107.663C127.968 107.889 127.221 108.678 126.317 108.702C125.302 108.559 124.329 108.197 123.467 107.642C122.044 106.93 120.35 107.025 119.017 107.894C118.434 108.307 117.783 108.616 117.094 108.806C116.251 108.863 115.408 108.676 114.668 108.268C114.173 108.003 113.618 107.869 113.056 107.878C112.323 108.027 111.661 108.417 111.175 108.986C110.889 109.264 111.327 109.701 111.613 109.424" fill="#003849"/>
<path fill-rule="evenodd" clip-rule="evenodd" d="M111.615 113.576C112.086 112.932 112.87 112.595 113.661 112.697C114.295 112.858 114.877 113.203 115.502 113.397C117.002 113.867 118.056 113.315 119.332 112.577C120.019 112.124 120.825 111.885 121.647 111.891C122.603 112.057 123.521 112.394 124.357 112.885C125.062 113.303 125.878 113.494 126.695 113.431C127.534 113.275 128.176 112.625 128.995 112.409C129.161 112.364 129.258 112.193 129.213 112.027C129.168 111.861 128.997 111.764 128.831 111.809C127.968 112.036 127.22 112.824 126.317 112.848C125.302 112.705 124.329 112.343 123.467 111.788C122.044 111.075 120.35 111.171 119.017 112.04C118.434 112.453 117.783 112.762 117.094 112.952C116.251 113.009 115.409 112.823 114.668 112.415C114.173 112.15 113.618 112.016 113.056 112.025C112.323 112.173 111.661 112.563 111.175 113.132C110.889 113.41 111.327 113.847 111.613 113.57" fill="#003849"/>
<path fill-rule="evenodd" clip-rule="evenodd" d="M111.615 117.722C112.086 117.078 112.87 116.741 113.661 116.843C114.295 117.004 114.877 117.349 115.502 117.543C117.002 118.013 118.056 117.461 119.332 116.724C120.019 116.271 120.824 116.032 121.647 116.037C122.603 116.203 123.521 116.541 124.357 117.032C125.062 117.45 125.878 117.64 126.695 117.578C127.534 117.421 128.176 116.772 128.995 116.556C129.161 116.511 129.258 116.34 129.213 116.174C129.168 116.008 128.997 115.911 128.831 115.956C127.968 116.183 127.221 116.971 126.317 116.995C125.302 116.852 124.329 116.49 123.467 115.935C122.044 115.222 120.35 115.318 119.017 116.187C118.434 116.6 117.783 116.909 117.094 117.099C116.251 117.156 115.409 116.969 114.668 116.561C114.173 116.296 113.618 116.162 113.056 116.171C112.323 116.32 111.661 116.709 111.175 117.278C110.889 117.556 111.327 117.993 111.613 117.716" fill="#003849"/>
<path fill-rule="evenodd" clip-rule="evenodd" d="M111.615 121.87C112.086 121.226 112.87 120.889 113.661 120.99C114.295 121.152 114.877 121.496 115.502 121.69C117.002 122.16 118.056 121.608 119.332 120.87C120.019 120.417 120.824 120.178 121.647 120.183C122.603 120.349 123.521 120.686 124.357 121.178C125.062 121.596 125.878 121.787 126.695 121.724C127.534 121.568 128.176 120.918 128.995 120.702C129.161 120.657 129.258 120.486 129.213 120.32C129.168 120.154 128.997 120.057 128.831 120.102C127.969 120.329 127.22 121.118 126.317 121.141C125.302 120.998 124.329 120.636 123.467 120.081C122.044 119.368 120.35 119.464 119.017 120.333C118.434 120.746 117.783 121.055 117.094 121.245C116.251 121.303 115.408 121.116 114.668 120.707C114.173 120.442 113.618 120.308 113.056 120.317C112.323 120.466 111.661 120.856 111.175 121.425C110.889 121.703 111.327 122.14 111.613 121.863" fill="#003849"/>
<path fill-rule="evenodd" clip-rule="evenodd" d="M111.615 126.016C112.086 125.372 112.87 125.035 113.661 125.137C114.295 125.298 114.877 125.643 115.502 125.837C117.002 126.307 118.056 125.755 119.332 125.017C120.019 124.564 120.825 124.326 121.647 124.331C122.603 124.497 123.521 124.834 124.357 125.326C125.062 125.744 125.878 125.934 126.695 125.872C127.534 125.716 128.176 125.066 128.995 124.85C129.161 124.805 129.258 124.634 129.213 124.468C129.168 124.302 128.997 124.205 128.831 124.25C127.968 124.477 127.22 125.265 126.317 125.289C125.302 125.146 124.329 124.785 123.467 124.229C122.044 123.516 120.35 123.612 119.017 124.481C118.434 124.895 117.783 125.203 117.094 125.393C116.251 125.45 115.409 125.264 114.668 124.856C114.173 124.591 113.618 124.457 113.056 124.466C112.323 124.614 111.661 125.004 111.175 125.573C110.889 125.851 111.327 126.288 111.613 126.011" fill="#003849"/>
<path fill-rule="evenodd" clip-rule="evenodd" d="M111.615 130.163C112.086 129.519 112.87 129.182 113.661 129.283C114.295 129.444 114.877 129.789 115.502 129.983C117.002 130.453 118.056 129.901 119.332 129.164C120.019 128.711 120.824 128.472 121.647 128.477C122.603 128.643 123.521 128.98 124.357 129.472C125.062 129.89 125.878 130.081 126.695 130.018C127.534 129.862 128.176 129.212 128.995 128.996C129.161 128.951 129.258 128.78 129.213 128.614C129.168 128.448 128.997 128.351 128.831 128.396C127.968 128.623 127.221 129.411 126.317 129.435C125.302 129.292 124.329 128.93 123.467 128.375C122.044 127.662 120.35 127.758 119.017 128.627C118.434 129.04 117.783 129.349 117.094 129.539C116.251 129.596 115.408 129.409 114.668 129.001C114.173 128.736 113.618 128.602 113.056 128.611C112.323 128.76 111.661 129.15 111.175 129.719C110.889 129.997 111.327 130.434 111.613 130.157" fill="#003849"/>
<path fill-rule="evenodd" clip-rule="evenodd" d="M294.717 94.737C290.856 88.1991 290.335 79.3761 294.059 72.655C295.794 69.4226 298.65 66.9357 302.091 65.662C306.405 64.1575 311.141 64.4408 315.245 66.4491C317.438 67.5907 319.394 69.1376 321.011 71.008C321.891 72.0078 322.698 73.0691 323.426 74.184C324.383 75.5738 325.232 77.0348 325.967 78.5541L326.077 78.1311C322.277 80.298 318.369 82.2771 314.487 84.287C309.631 86.8004 304.764 89.2954 299.887 91.7721C298.02 92.7234 296.153 93.6747 294.287 94.6261C293.933 94.808 294.245 95.3411 294.599 95.1601C298.492 93.168 302.387 91.1801 306.285 89.196C311.153 86.705 316.018 84.209 320.854 81.657C322.707 80.679 324.562 79.703 326.382 78.6651C326.525 78.5759 326.574 78.3902 326.493 78.2421C325.81 76.8332 325.027 75.4751 324.151 74.178C323.495 73.1532 322.779 72.1687 322.005 71.2301C320.542 69.4246 318.793 67.8707 316.828 66.6301C312.809 64.2142 307.997 63.4886 303.445 64.6121C299.737 65.5295 296.502 67.7923 294.369 70.9611C292.239 74.2159 291.054 77.9984 290.947 81.8871C290.736 86.4932 291.857 91.0625 294.176 95.0481C294.262 95.1955 294.451 95.2451 294.599 95.159C294.746 95.0728 294.796 94.8835 294.71 94.7361" fill="#003849"/>
<path fill-rule="evenodd" clip-rule="evenodd" d="M299.4 87.25C297.078 83.3198 296.929 78.4743 299.006 74.4091C300.021 72.5074 301.706 71.0498 303.733 70.3181C306.246 69.4621 308.997 69.6483 311.372 70.8351C314.136 72.4507 316.303 74.9162 317.551 77.864C317.588 77.7231 317.625 77.582 317.662 77.4411C312.65 80.298 307.434 82.8271 302.295 85.446C301.189 86.0101 300.083 86.5741 298.977 87.138C298.623 87.3201 298.935 87.853 299.289 87.672C304.431 85.0421 309.589 82.442 314.698 79.748C315.798 79.168 316.898 78.5891 317.975 77.974C318.119 77.8852 318.168 77.6991 318.086 77.551C316.883 74.8004 314.933 72.4417 312.458 70.7421C310.073 69.2716 307.201 68.8107 304.475 69.461C299.769 70.554 297.184 75.0871 296.956 79.661C296.814 82.424 297.478 85.1686 298.867 87.5611C298.953 87.7085 299.143 87.7581 299.29 87.672C299.438 87.5859 299.487 87.3965 299.401 87.2491" fill="#003849"/>
<path fill-rule="evenodd" clip-rule="evenodd" d="M296.852 90.1871C297.302 90.9951 297.536 91.9051 298.009 92.7011C298.095 92.8485 298.285 92.8982 298.432 92.8121C298.58 92.7259 298.629 92.5365 298.543 92.3891C298.07 91.5891 297.836 90.6831 297.386 89.8751C297.192 89.5271 296.658 89.8391 296.852 90.1871" fill="#003849"/>
<path fill-rule="evenodd" clip-rule="evenodd" d="M303.842 87.7731C304.103 88.3641 304.405 88.9356 304.747 89.4831C304.803 89.5785 304.906 89.637 305.016 89.6364C305.126 89.6359 305.228 89.5764 305.283 89.4804C305.338 89.3844 305.337 89.2665 305.281 89.1711C304.939 88.6235 304.637 88.052 304.376 87.4611C304.29 87.3145 304.101 87.265 303.953 87.3501C303.809 87.4389 303.761 87.6251 303.842 87.7731" fill="#003849"/>
<path fill-rule="evenodd" clip-rule="evenodd" d="M310.883 84.1021C311.032 84.4021 311.203 84.6821 311.36 84.9741C311.516 85.244 311.633 85.535 311.707 85.8381C311.752 86.0038 311.923 86.1014 312.089 86.0561C312.254 86.0108 312.352 85.8398 312.307 85.6741C312.086 85.0136 311.789 84.3813 311.421 83.7901C311.334 83.6435 311.145 83.594 310.998 83.6791C310.853 83.7676 310.804 83.9541 310.887 84.1021" fill="#003849"/>
<path fill-rule="evenodd" clip-rule="evenodd" d="M317.167 80.897C317.173 80.905 317.242 80.997 317.212 80.954L317.285 81.054C317.334 81.1207 317.381 81.1874 317.428 81.254C317.52 81.3874 317.608 81.5244 317.692 81.665C317.866 81.951 318.024 82.245 318.174 82.544C318.261 82.6902 318.449 82.7395 318.597 82.655C318.741 82.5662 318.79 82.3801 318.708 82.232C318.404 81.6045 318.035 81.0103 317.608 80.459C317.487 80.3389 317.292 80.3389 317.171 80.459C317.055 80.5819 317.055 80.7741 317.171 80.897" fill="#003849"/>
<path fill-rule="evenodd" clip-rule="evenodd" d="M324.37 75.3311C323.804 75.6401 323.237 75.9471 322.66 76.2361C322.514 76.3232 322.465 76.5114 322.549 76.6591C322.638 76.8026 322.824 76.8513 322.972 76.7701C323.548 76.4811 324.115 76.1701 324.681 75.8651C324.828 75.7783 324.877 75.5897 324.792 75.4421C324.704 75.2978 324.517 75.2489 324.369 75.3311" fill="#003849"/>
<path fill-rule="evenodd" clip-rule="evenodd" d="M319.731 69.6971C319.166 70.2091 318.556 70.6681 317.971 71.1551C317.851 71.2763 317.851 71.4718 317.971 71.5931C318.094 71.709 318.286 71.709 318.408 71.5931C318.994 71.1061 319.608 70.6471 320.168 70.1341C320.288 70.013 320.288 69.8182 320.168 69.6971C320.046 69.5806 319.854 69.5806 319.731 69.6971" fill="#003849"/>
<path fill-rule="evenodd" clip-rule="evenodd" d="M313.347 65.3851C312.987 65.9001 312.647 66.4301 312.291 66.9441C312.207 67.0918 312.256 67.28 312.402 67.3671C312.55 67.4489 312.736 67.4 312.825 67.2561C313.185 66.7421 313.525 66.2121 313.881 65.6971C313.966 65.5495 313.917 65.3609 313.77 65.2741C313.622 65.1924 313.436 65.2413 313.347 65.3851Z" fill="#003849"/>
<path fill-rule="evenodd" clip-rule="evenodd" d="M305.923 64.6541C305.774 65.2961 305.569 65.9231 305.423 66.5651C305.378 66.7308 305.475 66.9018 305.641 66.9471C305.807 66.9924 305.978 66.8948 306.023 66.7291C306.172 66.0871 306.377 65.4601 306.523 64.8181C306.568 64.6524 306.471 64.4814 306.305 64.4361C306.14 64.3908 305.969 64.4884 305.923 64.6541Z" fill="#003849"/>
<path fill-rule="evenodd" clip-rule="evenodd" d="M298.007 67.8201C298.402 68.2631 298.868 68.6341 299.264 69.0771C299.385 69.1967 299.58 69.1967 299.701 69.0771C299.818 68.9545 299.818 68.7616 299.701 68.6391C299.301 68.1971 298.839 67.8251 298.444 67.382C298.323 67.2625 298.128 67.2625 298.007 67.382C297.89 67.5044 297.89 67.6977 298.007 67.8201" fill="#003849"/>
<path fill-rule="evenodd" clip-rule="evenodd" d="M293.266 74.4881C293.776 74.6677 294.297 74.819 294.825 74.9411C294.932 74.9706 295.047 74.9407 295.126 74.8626C295.205 74.7845 295.236 74.6701 295.208 74.5626C295.18 74.455 295.097 74.3706 294.99 74.3411C294.462 74.2189 293.942 74.0676 293.431 73.8881C293.266 73.8444 293.097 73.9404 293.05 74.1041C293.008 74.2682 293.104 74.4357 293.266 74.4841" fill="#003849"/>
<path fill-rule="evenodd" clip-rule="evenodd" d="M291.436 82.5776C292.153 82.5153 292.868 82.4419 293.58 82.3183C293.744 82.2624 293.841 82.0547 293.796 81.8534C293.747 81.6555 293.58 81.5393 293.416 81.5892C292.766 81.7017 292.097 81.7629 291.437 81.8216C291.326 81.8211 291.224 81.8931 291.169 82.0102C291.113 82.1274 291.113 82.2718 291.169 82.389C291.224 82.5061 291.326 82.5781 291.437 82.5776" fill="#003849"/>
<path fill-rule="evenodd" clip-rule="evenodd" d="M292.674 89.876C293.231 89.6788 293.776 89.4504 294.307 89.192C294.453 89.1049 294.502 88.9164 294.417 88.769C294.328 88.6252 294.142 88.5763 293.994 88.658C293.867 88.721 293.739 88.783 293.61 88.841L293.428 88.921L293.35 88.955L293.293 88.979C293.033 89.085 292.771 89.185 292.508 89.279C292.342 89.3246 292.245 89.4958 292.29 89.6615C292.336 89.8272 292.507 89.9246 292.673 89.8791" fill="#003849"/>
<path fill-rule="evenodd" clip-rule="evenodd" d="M91.4907 79.7C92.4907 75.209 87.9797 70.805 88.1627 66.036C88.3827 61.536 92.1087 59.411 96.2877 60.176C101.17 61.176 105.021 64.837 104.488 70.269C104.116 74.06 100.937 76.115 98.5386 78.569C97.7144 79.3974 97.0353 80.3585 96.5297 81.412" fill="#FFD066"/>
<path fill-rule="evenodd" clip-rule="evenodd" d="M96.1768 81.2261C94.8768 80.7881 93.5287 80.4451 92.2548 79.9201C91.3113 79.4705 90.2626 79.2882 89.2228 79.3931C88.6378 79.4781 87.8548 79.7401 87.7558 80.4201C87.6248 81.3111 88.7318 81.9471 89.3668 82.3031L89.4408 81.7381C88.5678 81.9381 87.2057 82.2781 86.7978 83.1931C86.2978 84.3151 87.9138 85.0191 88.6818 85.3401V84.7401C87.8578 85.0461 85.9818 85.7351 86.5248 86.9661C86.7913 87.4334 87.1943 87.8082 87.6797 88.0401C88.3577 88.4177 89.0654 88.7391 89.7958 89.0011C91.2626 89.5925 92.7917 90.0158 94.3538 90.2631C95.1788 90.3741 96.5018 90.3631 96.7427 89.3351C96.9838 88.3071 95.9557 87.3351 95.1778 86.8521L95.0218 87.4281C96.0148 87.4061 97.5447 87.1401 97.5137 85.8471C97.3292 84.7929 96.6094 83.9106 95.6138 83.5181L95.3758 84.0831C96.1998 84.2831 98.4028 84.7421 98.6138 83.4041C98.8018 82.2041 97.0468 81.4881 96.1788 81.2221C95.7978 81.1051 95.6338 81.7021 96.0138 81.8221C96.5454 81.966 97.0458 82.2071 97.4898 82.5331C97.6898 82.6901 98.0428 82.9981 98.0068 83.2921C97.9068 84.0791 95.9138 83.5811 95.5408 83.4921C95.2138 83.4131 94.9758 83.8921 95.3028 84.0571C96.0545 84.35 96.6352 84.9649 96.8848 85.7321C97.0478 86.7001 95.6708 86.8011 95.0237 86.8151C94.8867 86.8195 94.7685 86.913 94.7326 87.0454C94.6968 87.1778 94.7516 87.3181 94.8677 87.3911C95.4068 87.7271 96.1338 88.3281 96.1558 89.0301C96.1818 89.8521 94.8948 89.7301 94.3848 89.6541C93.1846 89.4416 92.0039 89.1306 90.8548 88.7241C89.6913 88.4083 88.5857 87.9087 87.5798 87.2441C87.3218 87.0531 86.9297 86.7441 87.1038 86.3821C87.3768 85.8221 88.3278 85.5341 88.8478 85.3411C88.9818 85.3029 89.0741 85.1804 89.0741 85.0411C89.0741 84.9018 88.9818 84.7794 88.8478 84.7411C88.4098 84.5581 86.8868 83.9621 87.4758 83.2731C88.0773 82.7551 88.8188 82.4269 89.6068 82.3301C89.7248 82.295 89.8111 82.1937 89.8271 82.0716C89.8431 81.9495 89.7858 81.8295 89.6808 81.7651C89.3608 81.5851 88.0438 80.9061 88.4368 80.3651C88.7778 79.8911 89.7648 79.9411 90.2598 79.9861C91.1602 80.1496 92.0364 80.4257 92.8678 80.8081C93.9078 81.1741 94.9678 81.4711 96.0148 81.8211C96.3928 81.9481 96.5558 81.3511 96.1797 81.2211" fill="#003849"/>
<path fill-rule="evenodd" clip-rule="evenodd" d="M88.8661 82.2271L93.7841 83.8941C94.1621 84.0221 94.3241 83.4251 93.9481 83.2941L89.0311 81.6251C88.6531 81.4971 88.4911 82.0931 88.8661 82.2251" fill="#003849"/>
<path fill-rule="evenodd" clip-rule="evenodd" d="M90.8796 86.044L94.9385 87.421C95.3166 87.549 95.4786 86.953 95.1036 86.821L91.0446 85.444C90.6666 85.316 90.5046 85.913 90.8806 86.044" fill="#003849"/>
<path fill-rule="evenodd" clip-rule="evenodd" d="M92.7235 80.1321C93.5602 79.1361 94.1224 77.939 94.3545 76.6591C94.4841 75.5307 94.5336 74.3945 94.5025 73.2591C94.6931 71.9514 94.646 70.6201 94.3635 69.3291C94.2286 68.7577 93.8298 68.2847 93.2895 68.0551C92.6363 67.8641 91.9308 68.0279 91.4285 68.4871C90.3005 69.6431 91.4285 71.7151 92.5445 72.4081C94.8065 73.8081 96.4445 71.2601 97.3125 69.5141L96.7365 69.3581C96.6765 70.6981 96.6845 72.9211 98.0915 73.6311C99.3615 74.2711 100.724 73.2551 101.168 72.0851C101.458 71.3231 101.469 69.6691 100.203 70.0161C99.5083 70.3126 98.9194 70.813 98.5145 71.4511C97.8984 72.2726 97.3812 73.1637 96.9735 74.1061C96.0164 76.288 95.3144 78.5732 94.8815 80.9161C94.8065 81.3051 95.4025 81.4711 95.4815 81.0801C95.78 79.5339 96.1843 78.01 96.6915 76.5191C97.1941 74.8749 97.9509 73.3194 98.9345 71.9091C99.2445 71.4971 100.835 69.7191 100.734 71.2301C100.71 72.2881 99.8652 73.1438 98.8075 73.1821C97.2365 73.0821 97.3015 70.4631 97.3505 69.3561C97.3476 69.2182 97.2541 69.0987 97.1209 69.0626C96.9877 69.0265 96.8467 69.0825 96.7745 69.2001C96.1305 70.5001 95.0125 72.7511 93.2075 72.0511C92.5432 71.7638 92.0267 71.2154 91.7795 70.5351C91.5795 70.0351 91.4525 69.2551 91.9275 68.8571C92.3467 68.5187 92.9401 68.5011 93.3785 68.8141C93.7017 69.1945 93.8907 69.6707 93.9165 70.1691C94.0081 71.1873 93.9967 72.2122 93.8825 73.2281C93.8275 74.2071 93.9515 75.1691 93.8095 76.1511C93.6434 77.4521 93.1142 78.68 92.2825 79.6941C92.0286 79.9941 92.4635 80.4361 92.7195 80.1321" fill="#003849"/>
<path fill-rule="evenodd" clip-rule="evenodd" d="M326.213 20.7161C321.704 20.325 317.444 22.8424 315.613 26.9811C313.855 30.9115 314.457 35.4967 317.17 38.8401C320.675 42.6513 325.989 44.2302 331.007 42.9511C333.396 42.2952 335.427 40.7177 336.654 38.5651C337.854 36.3014 338.363 33.7347 338.117 31.1841C337.956 28.9156 337.088 26.7547 335.635 25.0051C333.796 22.9939 331.358 21.6288 328.683 21.1121C327.869 20.932 327.045 20.7985 326.216 20.7121C325.821 20.6691 325.824 21.2881 326.216 21.3301C329.086 21.5197 331.832 22.5678 334.099 24.3381C335.75 25.7698 336.879 27.7099 337.307 29.8531C338.248 34.3981 336.64 39.8361 332.184 41.8671C327.905 43.8181 322.065 42.5441 318.628 39.4551C315.631 36.6799 314.49 32.4334 315.692 28.5301C316.957 23.8723 321.416 20.8216 326.216 21.3301C326.616 21.3571 326.616 20.7391 326.216 20.7121" fill="#003849"/>
<path fill-rule="evenodd" clip-rule="evenodd" d="M326.287 23.827C323.01 23.545 319.918 25.38 318.595 28.391C317.328 31.2425 317.775 34.564 319.749 36.98C322.294 39.7381 326.151 40.8712 329.783 39.928C333.493 38.857 335.211 35.092 334.908 31.438C334.785 29.5655 333.992 27.7997 332.674 26.464C330.901 24.894 328.653 23.964 326.29 23.823C325.895 23.779 325.898 24.398 326.29 24.441C329.912 24.841 333.368 26.671 334.156 30.488C334.822 33.713 333.678 37.573 330.509 39.005C327.21 40.2572 323.489 39.5724 320.852 37.228C318.76 35.2474 317.98 32.2478 318.842 29.499C319.804 26.255 322.92 24.139 326.29 24.441C326.69 24.467 326.69 23.849 326.29 23.823" fill="#003849"/>
<path fill-rule="evenodd" clip-rule="evenodd" d="M353.614 30.7741C349.103 30.379 344.839 32.8966 343.006 37.0381C341.248 40.9685 341.85 45.5538 344.563 48.8971C348.069 52.711 353.386 54.2913 358.406 53.0111C360.794 52.3549 362.825 50.7775 364.052 48.6251C365.253 46.3613 365.761 43.7946 365.514 41.2441C365.354 38.9755 364.486 36.8145 363.032 35.0651C361.194 33.054 358.756 31.6888 356.08 31.1721C355.266 30.9918 354.443 30.8583 353.613 30.7721C353.218 30.7291 353.221 31.3481 353.613 31.3901C356.483 31.5798 359.23 32.6278 361.496 34.3981C363.148 35.8296 364.277 37.7698 364.704 39.9131C365.645 44.4581 364.038 49.8961 359.581 51.9261C355.302 53.8771 349.462 52.6031 346.025 49.5141C343.029 46.7391 341.888 42.4924 343.089 38.5891C344.355 33.9313 348.814 30.8807 353.613 31.3891C354.013 31.4161 354.013 30.7981 353.613 30.7711" fill="#003849"/>
<path fill-rule="evenodd" clip-rule="evenodd" d="M353.684 33.8871C350.407 33.6051 347.314 35.4401 345.992 38.4511C344.725 41.3025 345.171 44.6242 347.146 47.0401C349.69 49.7962 353.545 50.9287 357.176 49.9871C360.886 48.9161 362.604 45.1501 362.301 41.4961C362.176 39.6245 361.382 37.8603 360.063 36.5261C358.291 34.956 356.043 34.0261 353.68 33.8851C353.285 33.8411 353.288 34.4601 353.68 34.5031C357.302 34.9031 360.758 36.7331 361.546 40.5501C362.212 43.7751 361.068 47.6351 357.899 49.0671C354.6 50.3197 350.878 49.6349 348.242 47.2901C346.15 45.3092 345.37 42.3099 346.232 39.5611C347.194 36.3169 350.309 34.2006 353.68 34.5021C354.08 34.5281 354.08 33.9101 353.68 33.8841" fill="#003849"/>
<path fill-rule="evenodd" clip-rule="evenodd" d="M338.096 34.2031C339.925 33.0671 342.531 34.2451 343.496 35.9971C343.688 36.3451 344.223 36.0341 344.03 35.6851C342.903 33.6431 339.892 32.3581 337.781 33.6691C337.444 33.8791 337.754 34.4141 338.094 34.2031" fill="#003849"/>
<path fill-rule="evenodd" clip-rule="evenodd" d="M337.626 36.5581C339.346 35.4071 341.771 36.4941 342.642 38.2101C342.822 38.5651 343.355 38.2531 343.176 37.8981C342.159 35.8981 339.302 34.6981 337.314 36.0241C336.985 36.2441 337.294 36.7801 337.626 36.5581Z" fill="#003849"/>
<path fill-rule="evenodd" clip-rule="evenodd" d="M321.235 29.9011L326.63 27.4011C326.991 27.2341 326.677 26.7011 326.317 26.8671L320.922 29.3671C320.562 29.5341 320.875 30.0671 321.235 29.9011Z" fill="#003849"/>
<path fill-rule="evenodd" clip-rule="evenodd" d="M323.049 33.334C325.544 32.178 328.026 30.998 330.521 29.842C330.881 29.675 330.568 29.142 330.209 29.308C327.715 30.464 325.231 31.644 322.737 32.8C322.378 32.967 322.691 33.5 323.05 33.334" fill="#003849"/>
<path fill-rule="evenodd" clip-rule="evenodd" d="M326.924 35.165C327.665 34.853 328.384 34.493 329.114 34.155C329.26 34.0675 329.309 33.8794 329.224 33.732C329.136 33.5872 328.949 33.5382 328.801 33.621C328.12 33.938 327.451 34.279 326.759 34.57C326.598 34.6201 326.504 34.7863 326.543 34.95C326.59 35.1141 326.759 35.2103 326.924 35.166" fill="#003849"/>
<path fill-rule="evenodd" clip-rule="evenodd" d="M348.124 41.5711L355.318 38.2401C355.679 38.0731 355.365 37.5401 355.006 37.7061L347.812 41.0371C347.452 41.2041 347.765 41.7371 348.124 41.5711Z" fill="#003849"/>
<path fill-rule="evenodd" clip-rule="evenodd" d="M352.642 44.9401C354.042 44.2607 355.453 43.6077 356.874 42.9811C357.021 42.8943 357.07 42.7057 356.985 42.5581C356.896 42.4138 356.71 42.3648 356.562 42.4471C355.139 43.0744 353.729 43.7274 352.33 44.4061C351.972 44.5801 352.286 45.1131 352.642 44.9401Z" fill="#003849"/>
<path fill-rule="evenodd" clip-rule="evenodd" d="M356.75 46.1619L357.126 45.9442C357.161 45.9202 357.192 45.8853 357.214 45.8429C357.241 45.8053 357.26 45.7596 357.27 45.71C357.282 45.6595 357.284 45.6059 357.275 45.5543C357.273 45.5025 357.26 45.4522 357.237 45.4088C357.196 45.3209 357.129 45.2565 357.051 45.229L356.967 45.2151C356.911 45.215 356.857 45.2334 356.809 45.2683L356.435 45.486C356.399 45.5102 356.369 45.5449 356.346 45.5872C356.293 45.6671 356.27 45.773 356.285 45.8758C356.287 45.9277 356.299 45.978 356.322 46.0214C356.363 46.1095 356.43 46.1741 356.508 46.2012L356.591 46.2151C356.647 46.2153 356.701 46.197 356.749 46.1619" fill="#003849"/>
<path fill-rule="evenodd" clip-rule="evenodd" d="M82.6943 39.1401C79.4573 39.7551 76.2333 40.4511 73.0243 41.1991C71.7042 41.5071 70.3733 41.8051 69.0803 42.2111C68.7838 42.2764 68.5 42.3899 68.2402 42.5471C67.9531 42.8703 67.7951 43.2878 67.7963 43.7201C67.6016 45.3347 67.5254 46.9614 67.5682 48.5871C67.57 48.6971 67.6295 48.798 67.7249 48.8528C67.8203 48.9076 67.9374 48.9081 68.0333 48.8541C68.7661 48.3289 69.423 47.705 69.9853 47.0001C70.2948 46.5679 70.6547 46.1742 71.0573 45.8271C71.8397 45.3027 72.6638 44.8431 73.5212 44.4531C75.8373 43.2941 78.2073 42.2531 80.5212 41.0871C81.3947 40.7 82.2241 40.2202 82.9952 39.6561C83.3043 39.4051 82.8652 38.9701 82.5583 39.2181C81.8911 39.7001 81.1756 40.1113 80.4233 40.4451C79.3232 41.0021 78.2083 41.5281 77.0933 42.0541C74.9771 42.947 72.9241 43.9827 70.9484 45.1541C69.6753 45.9851 68.9973 47.4541 67.7203 48.3181L68.1853 48.5861C68.1853 47.2321 68.1993 45.8731 68.3203 44.5241C68.3533 44.1581 68.3613 43.2991 68.5853 43.0551C68.8245 42.9224 69.0829 42.8276 69.3513 42.7741C72.2313 41.8941 75.2233 41.3161 78.1653 40.6911C79.7263 40.3591 81.2903 40.0331 82.8593 39.7341C83.2493 39.6601 83.0843 39.0641 82.6943 39.1341" fill="#003849"/>
<path fill-rule="evenodd" clip-rule="evenodd" d="M70.626 46.3341C71.811 47.4341 72.79 48.7241 73.941 49.8551C74.43 50.3361 75.073 50.8691 75.65 50.2351C76.2538 49.5268 76.8192 48.7867 77.344 48.0181C78.275 46.7411 79.185 45.4501 80.085 44.1511C81.2144 42.5217 82.324 40.8791 83.414 39.2231C83.633 38.8891 83.098 38.5791 82.88 38.9111C80.821 42.0491 78.696 45.1521 76.468 48.1731C76.131 48.6301 75.793 49.0861 75.437 49.5281C75.17 49.8571 75.118 50.0351 74.729 49.7381C74.1651 49.2475 73.6488 48.7048 73.187 48.1171C72.507 47.3501 71.814 46.5961 71.063 45.8971C70.772 45.6261 70.333 46.0631 70.626 46.3351" fill="#003849"/>
<path fill-rule="evenodd" clip-rule="evenodd" d="M83.1477 38.7581C79.5237 38.5891 75.9008 38.3761 72.2727 38.2851C70.5277 38.2411 68.7727 38.2001 67.0287 38.3071C66.5287 38.3371 64.9657 38.2781 64.8547 39.0071C64.7547 39.6591 65.7457 40.5511 66.1217 40.9741C66.7607 41.7061 67.4405 42.4016 68.1577 43.0571C68.4527 43.3231 68.8907 42.8871 68.5947 42.6201C68.0347 42.1201 67.5097 41.5671 66.9947 41.0201C66.6947 40.6961 66.3947 40.3661 66.1157 40.0201C65.9817 39.8571 65.8497 39.6921 65.7307 39.5201C65.6642 39.377 65.5835 39.241 65.4897 39.1141C65.3527 39.0001 65.5277 39.1781 65.4307 39.1771C65.3937 39.1771 65.4777 39.1631 65.4607 39.1611C65.6383 39.1358 65.8129 39.0926 65.9817 39.0321C66.5177 38.9538 67.0581 38.9097 67.5997 38.9001C71.1267 38.7611 74.6777 38.9651 78.1997 39.1321C79.8487 39.2101 81.4997 39.3021 83.1477 39.3791C83.5477 39.3971 83.5477 38.7791 83.1477 38.7611" fill="#003849"/>
<path fill-rule="evenodd" clip-rule="evenodd" d="M52.5044 70.1531C56.3542 68.9877 59.2545 65.8045 60.0574 61.8631C60.355 60.336 60.0961 58.7528 59.3274 57.4001C58.5959 56.066 57.477 54.9851 56.1184 54.3001C54.951 53.6852 53.5287 53.8303 52.5094 54.6681C51.3224 55.6801 50.4094 57.6681 51.2284 59.1481C52.0724 60.6741 54.1284 61.0421 55.7144 60.9931C57.7994 60.9342 59.7766 60.0531 61.2144 58.5421C62.3614 57.2951 62.7694 55.5841 63.3054 54.0241C63.5539 53.1878 63.9362 52.3972 64.4374 51.6831C64.9922 50.9143 65.833 50.4011 66.7704 50.2591C66.9411 50.2591 67.0794 50.1208 67.0794 49.9501C67.0794 49.7794 66.941 49.6411 66.7704 49.6411C65.5177 49.8065 64.4055 50.5257 63.7404 51.6001C63.0853 52.7464 62.584 53.9739 62.2494 55.2511C61.8776 56.6293 61.1011 57.8645 60.0204 58.7971C58.3677 60.1013 56.2366 60.6376 54.1634 60.2711C52.5504 59.9711 51.0994 58.8481 51.6784 57.0561C52.1294 55.6651 53.3154 54.3211 54.8974 54.5561C56.2112 54.8642 57.3663 55.6438 58.1434 56.7471C59.0465 57.8107 59.5489 59.1569 59.5634 60.5521C59.5254 64.6931 56.1914 68.3881 52.3454 69.5591C51.9664 69.6741 52.1284 70.2711 52.5104 70.1591" fill="#003849"/>
<path fill-rule="evenodd" clip-rule="evenodd" d="M16.1807 133.01C34.2327 114.71 56.9807 112.485 80.9707 111.001C78.2507 116.441 66.6277 122.376 60.9397 125.344C55.3668 128.117 49.5778 130.433 43.6297 132.268C34.7297 134.494 25.3297 132.763 16.4297 133.01" fill="#D67676"/>
<path fill-rule="evenodd" clip-rule="evenodd" d="M17.0225 133.368C24.4636 130.611 31.8875 127.796 39.4296 125.323C46.7966 122.908 54.3215 121.098 61.7635 118.943C65.8007 117.815 69.7601 116.426 73.6166 114.783C74.0535 114.592 73.6765 113.953 73.2426 114.143C66.2896 117.183 58.8825 118.985 51.5765 120.943C44.0455 122.966 36.6495 125.389 29.3156 128.043C25.1415 129.551 20.9875 131.111 16.8256 132.653C16.3815 132.818 16.5745 133.535 17.0255 133.369" fill="#003849"/>
<path fill-rule="evenodd" clip-rule="evenodd" d="M35.3348 121.868C33.0448 124.14 30.0948 125.814 28.2288 128.496C28.1446 128.642 28.1683 128.826 28.2868 128.946C29.7398 130.208 31.7798 130.364 33.5198 131.02C33.9678 131.188 34.1608 130.472 33.7198 130.304C32.1198 129.704 30.1448 129.577 28.8148 128.421L28.8728 128.871C30.6938 126.252 33.6238 124.613 35.8629 122.393C36.0078 122.247 36.0071 122.012 35.8613 121.867C35.7155 121.722 35.4798 121.722 35.3348 121.868" fill="#003849"/>
<path fill-rule="evenodd" clip-rule="evenodd" d="M44.669 118.356C43.134 120.509 41.122 122.282 39.723 124.538C39.6661 124.638 39.6581 124.758 39.7015 124.865C39.7448 124.971 39.8345 125.052 39.945 125.084C43.056 125.848 46.316 125.947 49.345 127.062C49.794 127.227 49.987 126.51 49.545 126.346C46.519 125.231 43.259 125.133 40.145 124.368C40.219 124.55 40.292 124.732 40.367 124.914C41.767 122.66 43.777 120.883 45.313 118.732C45.59 118.342 44.947 117.972 44.672 118.357" fill="#003849"/>
<path fill-rule="evenodd" clip-rule="evenodd" d="M54.1948 116.254C53.3168 117.854 52.1118 119.448 51.8087 121.289C51.7611 121.486 51.8745 121.686 52.0677 121.746C53.8851 122.371 55.7444 122.867 57.6318 123.23C58.0978 123.323 58.2977 122.608 57.8317 122.514C55.9441 122.152 54.0847 121.657 52.2678 121.03C52.3531 121.182 52.4394 121.334 52.5267 121.486C52.8207 119.708 53.9897 118.175 54.8387 116.629C55.0687 116.21 54.4287 115.835 54.1978 116.254" fill="#003849"/>
<path fill-rule="evenodd" clip-rule="evenodd" d="M63.5518 115.107C63.127 116.159 62.7556 117.232 62.4388 118.322C62.397 118.484 62.4665 118.654 62.6098 118.741C63.6819 119.2 64.7845 119.584 65.9098 119.891C66.3648 120.041 66.5588 119.325 66.1098 119.175C65.0443 118.889 63.9998 118.53 62.9838 118.1L63.1538 118.518C63.4708 117.428 63.8423 116.355 64.2668 115.303C64.4198 114.849 63.7038 114.655 63.5518 115.103" fill="#003849"/>
<path fill-rule="evenodd" clip-rule="evenodd" d="M48.699 118.544C48.3714 118.563 48.1152 118.834 48.1152 119.162C48.1152 119.49 48.3714 119.761 48.699 119.78C49.0267 119.761 49.2828 119.49 49.2828 119.162C49.2828 118.834 49.0267 118.563 48.699 118.544Z" fill="#003849"/>
<path fill-rule="evenodd" clip-rule="evenodd" d="M50.3074 116.813C49.9798 116.832 49.7236 117.103 49.7236 117.431C49.7236 117.759 49.9798 118.03 50.3074 118.049C50.6351 118.03 50.8912 117.759 50.8912 117.431C50.8912 117.103 50.6351 116.832 50.3074 116.813Z" fill="#003849"/>
<path fill-rule="evenodd" clip-rule="evenodd" d="M60.3221 120.275C59.9944 120.294 59.7383 120.565 59.7383 120.893C59.7383 121.221 59.9944 121.492 60.3221 121.511C60.6497 121.492 60.9058 121.221 60.9058 120.893C60.9058 120.565 60.6497 120.294 60.3221 120.275Z" fill="#003849"/>
<path fill-rule="evenodd" clip-rule="evenodd" d="M62.0535 121.264C61.7259 121.283 61.4697 121.554 61.4697 121.882C61.4697 122.21 61.7259 122.481 62.0535 122.5C62.3812 122.481 62.6373 122.21 62.6373 121.882C62.6373 121.554 62.3812 121.283 62.0535 121.264Z" fill="#003849"/>
<path fill-rule="evenodd" clip-rule="evenodd" d="M75.9012 112.98C75.5735 112.999 75.3174 113.27 75.3174 113.598C75.3174 113.926 75.5735 114.197 75.9012 114.216C76.2288 114.197 76.4849 113.926 76.4849 113.598C76.4849 113.27 76.2288 112.999 75.9012 112.98Z" fill="#003849"/>
<path fill-rule="evenodd" clip-rule="evenodd" d="M1.19891 113.06C0.456909 99.4601 1.19891 86.1051 9.60693 74.7301C16.778 65.3301 29.1429 57.6671 40.2709 54.2051C40.0239 66.5701 34.0889 82.3961 26.1709 91.7931C22.2117 96.4135 17.7336 100.562 12.825 104.158C9.36292 106.878 5.65393 111.329 1.2019 112.319" fill="#5596A5"/>
<path fill-rule="evenodd" clip-rule="evenodd" d="M2.54669 110.933C5.77258 103.469 9.67944 96.3182 14.2176 89.5712C16.3437 86.3381 18.5957 83.2001 20.8027 80.0241C22.9397 76.9501 24.9267 73.7751 27.0367 70.6841C29.2715 67.2194 31.8915 64.0189 34.8467 61.1441C35.1987 60.8201 34.6717 60.2961 34.3217 60.6201C28.8587 65.6601 25.1437 72.3201 21.0117 78.4121C18.8297 81.6321 16.5257 84.7661 14.3667 88.0041C12.1267 91.3631 9.97467 94.7821 7.9787 98.2931C5.68414 102.315 3.63153 106.47 1.83173 110.737C1.64771 111.176 2.36469 111.368 2.54669 110.937" fill="#003849"/>
<path fill-rule="evenodd" clip-rule="evenodd" d="M4.6626 93.649C4.80695 96.6671 5.14099 99.673 5.6626 102.649C5.70825 102.809 5.85394 102.92 6.02057 102.922C7.64191 102.976 9.25891 102.725 10.7876 102.182C12.3518 101.698 13.8791 101.102 15.3577 100.398C15.7896 100.198 15.4126 99.555 14.9836 99.758C13.5617 100.432 12.0933 101.003 10.5897 101.467C9.12506 101.99 7.57489 102.232 6.02057 102.18L6.3786 102.453C5.86926 99.543 5.54333 96.6039 5.40259 93.653C5.38159 93.178 4.63959 93.175 4.66058 93.653" fill="#003849"/>
<path fill-rule="evenodd" clip-rule="evenodd" d="M11.2157 81.4071C11.4587 85.0941 10.5667 88.8931 11.5997 92.5071C11.6467 92.6664 11.7916 92.7769 11.9577 92.7801C13.8618 92.7831 15.7554 92.4972 17.5737 91.9321C19.4383 91.4567 21.2292 90.7286 22.8967 89.7681C23.3036 89.5201 22.9317 88.8781 22.5227 89.1281C20.9099 90.0605 19.1767 90.7671 17.3716 91.2281C15.6174 91.7751 13.7902 92.0519 11.9527 92.0491L12.3107 92.3221C11.2987 88.7781 12.1907 85.0311 11.9527 81.4161C11.9217 80.9421 11.1797 80.9381 11.2107 81.4161" fill="#003849"/>
<path fill-rule="evenodd" clip-rule="evenodd" d="M17.6442 73.742C17.6442 75.01 17.5441 76.277 17.5251 77.542C17.4095 79.0408 17.5187 80.5485 17.8491 82.015C17.9283 82.442 18.2076 82.8051 18.6002 82.991C19.0734 83.1422 19.5728 83.1942 20.0671 83.144C21.6254 83.0361 23.1713 82.7922 24.6871 82.415C26.0872 82.106 27.4781 81.741 28.8712 81.392C29.0612 81.3307 29.1689 81.1302 29.1152 80.9379C29.0615 80.7456 28.8655 80.63 28.6711 80.676C26.1231 81.4074 23.5276 81.9621 20.9031 82.336C20.2301 82.409 18.8761 82.705 18.5952 81.921C18.2562 80.5927 18.1437 79.2168 18.2621 77.851C18.2722 76.48 18.3781 75.11 18.3842 73.74C18.3842 73.5351 18.218 73.369 18.0131 73.369C17.8082 73.369 17.6422 73.5351 17.6422 73.74" fill="#003849"/>
<path fill-rule="evenodd" clip-rule="evenodd" d="M24.4458 65.21C24.4388 66.403 24.2778 67.595 24.2388 68.788C24.0752 69.9846 24.2173 71.2032 24.6518 72.33C25.1448 73.218 26.3378 73.039 27.1797 72.903C28.5916 72.6394 29.9758 72.2454 31.3148 71.726C32.5668 71.275 33.8148 70.784 35.0148 70.226C35.4478 70.026 35.0718 69.387 34.6407 69.586C32.4759 70.6107 30.2153 71.4196 27.8918 72.001C27.3639 72.1382 26.8241 72.2249 26.2798 72.26C25.9878 72.272 25.5728 72.306 25.3588 72.069C25.1246 71.6782 25.0043 71.2296 25.0118 70.774C24.9604 70.1518 24.9474 69.5269 24.9728 68.903C25.0078 67.671 25.1728 66.44 25.1838 65.208C25.1838 65.0031 25.0176 64.837 24.8127 64.837C24.6078 64.837 24.4418 65.0031 24.4418 65.208" fill="#003849"/>
<path fill-rule="evenodd" clip-rule="evenodd" d="M19.1287 69.1671C18.801 69.1858 18.5449 69.4569 18.5449 69.7851C18.5449 70.1133 18.801 70.3845 19.1287 70.4031C19.4564 70.3844 19.7125 70.1133 19.7125 69.7851C19.7125 69.4569 19.4564 69.1858 19.1287 69.1671Z" fill="#003849"/>
<path fill-rule="evenodd" clip-rule="evenodd" d="M20.8592 67.3081C20.5315 67.3268 20.2754 67.5979 20.2754 67.9261C20.2754 68.2543 20.5315 68.5255 20.8592 68.5441C21.1868 68.5254 21.4429 68.2543 21.4429 67.9261C21.4429 67.5979 21.1868 67.3268 20.8592 67.3081Z" fill="#003849"/>
<path fill-rule="evenodd" clip-rule="evenodd" d="M21.3533 69.9081C21.0256 69.9267 20.7695 70.1979 20.7695 70.5261C20.7695 70.8543 21.0256 71.1254 21.3533 71.1441C21.681 71.1254 21.9371 70.8543 21.9371 70.5261C21.9371 70.1979 21.681 69.9268 21.3533 69.9081Z" fill="#003849"/>
<path fill-rule="evenodd" clip-rule="evenodd" d="M29.0193 76.8331C28.6917 76.8518 28.4355 77.1229 28.4355 77.4511C28.4355 77.7793 28.6917 78.0505 29.0193 78.0691C29.347 78.0504 29.6031 77.7793 29.6031 77.4511C29.6031 77.1229 29.347 76.8518 29.0193 76.8331Z" fill="#003849"/>
<path fill-rule="evenodd" clip-rule="evenodd" d="M30.7508 74.4791C30.4231 74.4978 30.167 74.7689 30.167 75.0971C30.167 75.4253 30.4231 75.6965 30.7508 75.7151C31.0784 75.6964 31.3345 75.4253 31.3345 75.0971C31.3345 74.769 31.0784 74.4978 30.7508 74.4791Z" fill="#003849"/>
<path fill-rule="evenodd" clip-rule="evenodd" d="M31.616 77.0801C31.2883 77.0987 31.0322 77.3699 31.0322 77.6981C31.0322 78.0263 31.2883 78.2974 31.616 78.3161C31.9437 78.2974 32.1998 78.0263 32.1998 77.6981C32.1998 77.3699 31.9437 77.0988 31.616 77.0801Z" fill="#003849"/>
<path fill-rule="evenodd" clip-rule="evenodd" d="M15.4187 95.2521C15.0911 95.2708 14.835 95.5419 14.835 95.8701C14.835 96.1982 15.0911 96.4694 15.4187 96.4881C15.7463 96.4694 16.0024 96.1982 16.0024 95.8701C16.0024 95.5419 15.7463 95.2708 15.4187 95.2521Z" fill="#003849"/>
<path fill-rule="evenodd" clip-rule="evenodd" d="M18.0154 94.5101C17.6877 94.5288 17.4316 94.8 17.4316 95.1281C17.4316 95.4563 17.6877 95.7274 18.0154 95.7461C18.343 95.7274 18.5991 95.4563 18.5991 95.1281C18.5991 94.8 18.343 94.5288 18.0154 94.5101Z" fill="#003849"/>
<path fill-rule="evenodd" clip-rule="evenodd" d="M6.88745 86.972C6.55981 86.9907 6.30371 87.2619 6.30371 87.59C6.30371 87.9182 6.55981 88.1894 6.88745 88.208C7.21509 88.1894 7.47119 87.9182 7.47119 87.59C7.47119 87.2619 7.21509 86.9907 6.88745 86.972Z" fill="#003849"/>
<path fill-rule="evenodd" clip-rule="evenodd" d="M7.38159 84.124C7.05396 84.1427 6.79785 84.4138 6.79785 84.742C6.79785 85.0702 7.05396 85.3413 7.38159 85.36C7.70923 85.3413 7.96533 85.0702 7.96533 84.742C7.96533 84.4138 7.70923 84.1427 7.38159 84.124Z" fill="#003849"/>
<path fill-rule="evenodd" clip-rule="evenodd" d="M36.8094 62.4901C36.4817 62.5088 36.2256 62.7799 36.2256 63.1081C36.2256 63.4363 36.4817 63.7075 36.8094 63.7261C37.137 63.7074 37.3931 63.4363 37.3931 63.1081C37.3931 62.7799 37.137 62.5088 36.8094 62.4901Z" fill="#003849"/>
<path fill-rule="evenodd" clip-rule="evenodd" d="M0.482361 133.132C0.095398 125.646 -0.729614 109.281 1.13336 101.818C4.63336 89.4711 9.52637 97.0031 11.2334 105.298C15.7474 91.3061 21.1204 77.3891 27.9434 96.5291C30.3434 94.8291 38.7544 81.8741 42.8584 88.4711C44.3584 91.2011 36.8494 99.7331 35.2334 102.365C40.3934 102.814 51.2454 103.588 44.0194 110.93C40.4064 114.601 32.5194 115.646 27.9904 117.851C33.4574 120.751 41.7574 124.945 31.8464 129.28C25.3244 132.523 7.64636 132.542 0.486389 133.131" fill="#003849"/>
<path fill-rule="evenodd" clip-rule="evenodd" d="M1.38965 134.023C11.6067 123.215 21.6107 112.196 31.1656 100.795C33.8083 97.6424 36.4127 94.4581 38.9786 91.2421C39.4697 90.6261 38.5997 89.7421 38.1036 90.3681C28.8397 101.991 19.0306 113.174 8.96167 124.103C6.16632 127.137 3.35101 130.152 0.515686 133.149C-0.0303345 133.727 0.842651 134.603 1.39069 134.023" fill="#5596A5"/>
<path fill-rule="evenodd" clip-rule="evenodd" d="M20.8595 95.503C20.8485 100.614 20.1215 105.728 20.6125 110.835C20.6244 111.171 20.8942 111.441 21.2305 111.453C26.5175 111.953 31.7755 110.728 37.0575 110.711C37.3851 110.692 37.6412 110.421 37.6412 110.093C37.6412 109.765 37.3851 109.494 37.0575 109.475C31.7755 109.492 26.5175 110.72 21.2305 110.217L21.8485 110.835C21.3575 105.728 22.0845 100.613 22.0955 95.503C22.0768 95.1754 21.8057 94.9192 21.4775 94.9192C21.1493 94.9192 20.8782 95.1754 20.8595 95.503Z" fill="#5596A5"/>
<path fill-rule="evenodd" clip-rule="evenodd" d="M7.0072 109.846C7.0072 115.16 6.69019 120.597 7.77118 125.837C7.84662 126.106 8.09198 126.292 8.37122 126.291C13.8652 126.052 19.3902 126.536 24.8572 125.774C25.6412 125.665 25.3082 124.474 24.5282 124.582C19.1802 125.327 13.7482 124.82 8.37122 125.054L8.97119 125.508C7.91418 120.384 8.24817 115.043 8.25116 109.846C8.23254 109.518 7.96136 109.262 7.63318 109.262C7.30499 109.262 7.03381 109.518 7.0152 109.846" fill="#5596A5"/>
<path fill-rule="evenodd" clip-rule="evenodd" d="M17.0255 103.973C16.525 103.99 16.1279 104.4 16.1279 104.901C16.1279 105.401 16.525 105.812 17.0254 105.828C17.5258 105.812 17.9229 105.401 17.9229 104.901C17.9229 104.4 17.5258 103.99 17.0255 103.973" fill="#5596A5"/>
<path fill-rule="evenodd" clip-rule="evenodd" d="M17.0255 99.274C16.525 99.2905 16.1279 99.7009 16.1279 100.202C16.1279 100.702 16.525 101.113 17.0254 101.129C17.5258 101.113 17.9229 100.702 17.9229 100.202C17.9229 99.7009 17.5258 99.2905 17.0255 99.2741" fill="#5596A5"/>
<path fill-rule="evenodd" clip-rule="evenodd" d="M25.4336 100.016C24.9332 100.033 24.5361 100.443 24.5361 100.944C24.5361 101.444 24.9332 101.855 25.4336 101.871C25.934 101.855 26.3311 101.444 26.3311 100.944C26.3311 100.443 25.934 100.033 25.4337 100.016" fill="#5596A5"/>
<path fill-rule="evenodd" clip-rule="evenodd" d="M37.7979 105.209C37.2975 105.226 36.9004 105.636 36.9004 106.137C36.9004 106.637 37.2975 107.048 37.7979 107.064C38.2982 107.048 38.6954 106.637 38.6954 106.137C38.6954 105.636 38.2982 105.226 37.7979 105.209" fill="#5596A5"/>
<path fill-rule="evenodd" clip-rule="evenodd" d="M41.5068 106.693C41.0065 106.71 40.6094 107.12 40.6094 107.621C40.6094 108.121 41.0065 108.532 41.5068 108.548C42.0072 108.532 42.4044 108.121 42.4044 107.621C42.4044 107.12 42.0072 106.71 41.5068 106.693" fill="#5596A5"/>
<path fill-rule="evenodd" clip-rule="evenodd" d="M21.4766 118.316C20.9762 118.333 20.5791 118.743 20.5791 119.244C20.5791 119.744 20.9762 120.155 21.4766 120.171C21.977 120.155 22.3741 119.744 22.3741 119.244C22.3741 118.743 21.977 118.333 21.4766 118.316" fill="#5596A5"/>
<path fill-rule="evenodd" clip-rule="evenodd" d="M31.6152 123.262C31.1149 123.279 30.7178 123.689 30.7178 124.19C30.7178 124.69 31.1149 125.101 31.6152 125.117C32.1156 125.101 32.5128 124.69 32.5128 124.19C32.5128 123.689 32.1157 123.279 31.6153 123.262" fill="#5596A5"/>
<path fill-rule="evenodd" clip-rule="evenodd" d="M6.88672 101.747C6.38635 101.764 5.98926 102.174 5.98926 102.675C5.98926 103.175 6.38635 103.586 6.88672 103.602C7.38708 103.586 7.78424 103.175 7.78424 102.675C7.78424 102.174 7.38708 101.764 6.88672 101.747" fill="#5596A5"/>
<path fill-rule="evenodd" clip-rule="evenodd" d="M3.91895 119.552C3.41858 119.569 3.02148 119.979 3.02148 120.48C3.02148 120.98 3.41858 121.391 3.91895 121.407C4.41937 121.391 4.81647 120.98 4.81647 120.48C4.81647 119.979 4.41937 119.569 3.91895 119.552" fill="#5596A5"/>
<path fill-rule="evenodd" clip-rule="evenodd" d="M358.569 133.01C340.517 114.71 317.769 112.485 293.779 111.001C296.499 116.441 308.122 122.376 313.81 125.344C319.383 128.117 325.172 130.433 331.12 132.268C340.02 134.494 349.42 132.763 358.32 133.01" fill="#FFD066"/>
<path fill-rule="evenodd" clip-rule="evenodd" d="M357.927 132.652C350.486 129.896 343.062 127.08 335.52 124.608C328.26 122.229 320.851 120.433 313.514 118.323C309.426 117.196 305.417 115.799 301.514 114.143C301.081 113.954 300.702 114.593 301.14 114.783C308.016 117.79 315.318 119.61 322.546 121.545C330.188 123.592 337.693 126.031 345.133 128.717C349.344 130.238 353.533 131.812 357.733 133.367C358.181 133.533 358.374 132.816 357.933 132.651" fill="#003849"/>
<path fill-rule="evenodd" clip-rule="evenodd" d="M338.896 122.391C341.134 124.611 344.064 126.25 345.886 128.87L345.944 128.42C344.614 129.576 342.635 129.702 341.038 130.303C340.596 130.47 340.787 131.187 341.238 131.019C342.979 130.364 345.018 130.208 346.472 128.945C346.59 128.825 346.614 128.641 346.53 128.495C344.664 125.812 341.714 124.139 339.424 121.867C339.279 121.722 339.044 121.722 338.899 121.867C338.754 122.012 338.754 122.247 338.899 122.392" fill="#003849"/>
<path fill-rule="evenodd" clip-rule="evenodd" d="M329.441 118.731C330.976 120.883 332.99 122.659 334.387 124.913L334.609 124.367C331.498 125.132 328.238 125.231 325.209 126.345C324.765 126.509 324.957 127.226 325.409 127.061C328.435 125.946 331.695 125.847 334.809 125.083C334.919 125.051 335.009 124.971 335.052 124.864C335.096 124.758 335.088 124.637 335.031 124.537C333.631 122.281 331.62 120.508 330.085 118.355C329.81 117.97 329.166 118.34 329.444 118.73" fill="#003849"/>
<path fill-rule="evenodd" clip-rule="evenodd" d="M319.92 116.629C320.769 118.175 321.938 119.708 322.232 121.486L322.491 121.03C320.674 121.657 318.814 122.153 316.927 122.514C316.46 122.608 316.657 123.324 317.127 123.23C319.014 122.868 320.874 122.372 322.691 121.746C322.883 121.686 322.996 121.487 322.95 121.29C322.65 119.449 321.442 117.856 320.564 116.255C320.334 115.837 319.693 116.21 319.923 116.63" fill="#003849"/>
<path fill-rule="evenodd" clip-rule="evenodd" d="M310.484 115.304C310.909 116.357 311.28 117.43 311.597 118.519L311.768 118.1C310.752 118.53 309.707 118.89 308.641 119.175C308.19 119.324 308.383 120.041 308.841 119.891C309.967 119.584 311.069 119.2 312.141 118.741C312.284 118.655 312.354 118.485 312.311 118.323C311.995 117.233 311.624 116.16 311.198 115.108C311.047 114.657 310.329 114.851 310.483 115.308" fill="#003849"/>
<path fill-rule="evenodd" clip-rule="evenodd" d="M326.052 118.544C326.379 118.563 326.635 118.834 326.635 119.162C326.635 119.49 326.379 119.761 326.052 119.78C325.724 119.761 325.468 119.49 325.468 119.162C325.468 118.834 325.724 118.563 326.052 118.544Z" fill="#003849"/>
<path fill-rule="evenodd" clip-rule="evenodd" d="M324.443 116.813C324.771 116.832 325.027 117.103 325.027 117.431C325.027 117.759 324.771 118.03 324.443 118.049C324.115 118.03 323.859 117.759 323.859 117.431C323.859 117.103 324.115 116.832 324.443 116.813Z" fill="#003849"/>
<path fill-rule="evenodd" clip-rule="evenodd" d="M314.429 120.275C314.756 120.294 315.012 120.565 315.012 120.893C315.012 121.221 314.756 121.492 314.429 121.511C314.101 121.492 313.845 121.221 313.845 120.893C313.845 120.565 314.101 120.294 314.429 120.275Z" fill="#003849"/>
<path fill-rule="evenodd" clip-rule="evenodd" d="M312.697 121.264C313.025 121.283 313.281 121.554 313.281 121.882C313.281 122.21 313.025 122.481 312.697 122.5C312.37 122.481 312.113 122.21 312.113 121.882C312.113 121.554 312.37 121.283 312.697 121.264Z" fill="#003849"/>
<path fill-rule="evenodd" clip-rule="evenodd" d="M298.849 112.98C299.177 112.999 299.433 113.27 299.433 113.598C299.433 113.926 299.177 114.197 298.849 114.216C298.522 114.197 298.266 113.926 298.266 113.598C298.266 113.27 298.522 112.999 298.849 112.98Z" fill="#003849"/>
<path fill-rule="evenodd" clip-rule="evenodd" d="M373.552 113.06C374.294 99.4601 373.552 86.1051 365.143 74.7301C357.972 65.3301 345.608 57.6671 334.479 54.2051C334.726 66.5701 340.661 82.3961 348.579 91.7931C352.541 96.4139 357.022 100.563 361.933 104.158C365.395 106.878 369.105 111.329 373.557 112.319" fill="#5596A5"/>
<path fill-rule="evenodd" clip-rule="evenodd" d="M372.92 110.737C369.691 103.245 365.779 96.066 361.236 89.29C359.074 85.9971 356.777 82.8041 354.536 79.5691C352.381 76.4641 350.376 73.2571 348.236 70.1391C345.998 66.6835 343.379 63.4905 340.428 60.6202C340.078 60.2971 339.552 60.8201 339.903 61.1441C345.346 66.1661 349.033 72.8001 353.154 78.8701C355.3 82.0301 357.56 85.1091 359.681 88.2861C361.902 91.6141 364.038 95.0001 366.021 98.4751C368.331 102.5 370.395 106.66 372.203 110.933C372.385 111.367 373.103 111.177 372.918 110.733" fill="#003849"/>
<path fill-rule="evenodd" clip-rule="evenodd" d="M369.349 93.6491C369.208 96.6 368.882 99.5392 368.373 102.449L368.731 102.176C367.177 102.228 365.627 101.986 364.163 101.463C362.659 100.999 361.191 100.428 359.769 99.7541C359.34 99.5541 358.962 100.191 359.395 100.394C360.873 101.098 362.401 101.694 363.965 102.178C365.493 102.721 367.11 102.972 368.731 102.918C368.897 102.915 369.042 102.805 369.089 102.645C369.61 99.669 369.944 96.6631 370.089 93.6451C370.111 93.1681 369.369 93.1691 369.347 93.6451" fill="#003849"/>
<path fill-rule="evenodd" clip-rule="evenodd" d="M362.794 81.4071C362.557 85.0221 363.449 88.7691 362.436 92.3131L362.794 92.0401C360.957 92.043 359.129 91.7661 357.375 91.2191C355.57 90.7583 353.837 90.0517 352.224 89.1191C351.816 88.8701 351.442 89.5111 351.85 89.7591C353.519 90.7224 355.311 91.4529 357.178 91.9301C358.996 92.4952 360.89 92.7812 362.794 92.7781C362.96 92.7745 363.105 92.6642 363.152 92.5051C364.185 88.8891 363.293 85.0881 363.536 81.4051C363.567 80.9281 362.825 80.9301 362.794 81.4051" fill="#003849"/>
<path fill-rule="evenodd" clip-rule="evenodd" d="M356.365 73.742C356.365 74.907 356.457 76.073 356.479 77.242C356.577 78.6845 356.502 80.1334 356.255 81.558C356.18 81.889 356.121 82.225 355.806 82.334C355.33 82.4453 354.837 82.4639 354.354 82.389C352.854 82.2457 351.367 81.9907 349.905 81.626C348.623 81.337 347.353 81.002 346.078 80.682C345.884 80.636 345.688 80.7516 345.634 80.9439C345.58 81.1363 345.688 81.3367 345.878 81.398C348.602 82.1947 351.386 82.7703 354.202 83.119C355.086 83.194 356.348 83.319 356.777 82.353C357.198 81.021 357.352 79.6187 357.228 78.227C357.228 76.727 357.111 75.239 357.104 73.745C357.104 73.5401 356.938 73.374 356.733 73.374C356.528 73.374 356.362 73.5401 356.362 73.745" fill="#003849"/>
<path fill-rule="evenodd" clip-rule="evenodd" d="M349.564 65.21C349.571 66.268 349.708 67.326 349.756 68.383C349.925 69.5465 349.84 70.7325 349.507 71.86C349.186 72.586 347.913 72.225 347.325 72.106C346.012 71.8173 344.723 71.4309 343.467 70.95C342.332 70.537 341.205 70.092 340.107 69.588C339.676 69.388 339.299 70.029 339.733 70.228C342.077 71.3611 344.541 72.2275 347.077 72.811C347.877 72.978 349.258 73.311 349.908 72.603C350.635 71.815 350.538 70.29 350.526 69.303C350.51 67.934 350.316 66.572 350.307 65.203C350.307 64.9981 350.141 64.832 349.936 64.832C349.731 64.832 349.565 64.9981 349.565 65.203" fill="#003849"/>
<path fill-rule="evenodd" clip-rule="evenodd" d="M355.623 69.1671C355.951 69.1858 356.207 69.4569 356.207 69.7851C356.207 70.1133 355.951 70.3845 355.623 70.4031C355.295 70.3844 355.039 70.1133 355.039 69.7851C355.039 69.4569 355.295 69.1858 355.623 69.1671Z" fill="#003849"/>
<path fill-rule="evenodd" clip-rule="evenodd" d="M353.891 67.3081C354.219 67.3268 354.475 67.5979 354.475 67.9261C354.475 68.2543 354.219 68.5255 353.891 68.5441C353.564 68.5254 353.308 68.2543 353.308 67.9261C353.308 67.5979 353.564 67.3268 353.891 67.3081Z" fill="#003849"/>
<path fill-rule="evenodd" clip-rule="evenodd" d="M353.397 69.9081C353.725 69.9267 353.981 70.1979 353.981 70.5261C353.981 70.8543 353.725 71.1254 353.397 71.1441C353.07 71.1254 352.813 70.8543 352.813 70.5261C352.813 70.1979 353.07 69.9268 353.397 69.9081Z" fill="#003849"/>
<path fill-rule="evenodd" clip-rule="evenodd" d="M345.731 76.8331C346.059 76.8518 346.315 77.1229 346.315 77.4511C346.315 77.7793 346.059 78.0505 345.731 78.0691C345.404 78.0504 345.147 77.7793 345.147 77.4511C345.147 77.1229 345.404 76.8518 345.731 76.8331Z" fill="#003849"/>
<path fill-rule="evenodd" clip-rule="evenodd" d="M344 74.4791C344.328 74.4978 344.584 74.7689 344.584 75.0971C344.584 75.4253 344.328 75.6965 344 75.7151C343.672 75.6964 343.416 75.4253 343.416 75.0971C343.416 74.769 343.672 74.4978 344 74.4791Z" fill="#003849"/>
<path fill-rule="evenodd" clip-rule="evenodd" d="M343.135 77.0801C343.462 77.0987 343.719 77.3699 343.719 77.6981C343.719 78.0263 343.462 78.2974 343.135 78.3161C342.807 78.2974 342.551 78.0263 342.551 77.6981C342.551 77.3699 342.807 77.0988 343.135 77.0801Z" fill="#003849"/>
<path fill-rule="evenodd" clip-rule="evenodd" d="M359.332 95.2521C359.66 95.2708 359.916 95.5419 359.916 95.8701C359.916 96.1982 359.66 96.4694 359.332 96.4881C359.004 96.4694 358.748 96.1982 358.748 95.8701C358.748 95.5419 359.004 95.2708 359.332 95.2521Z" fill="#003849"/>
<path fill-rule="evenodd" clip-rule="evenodd" d="M356.735 94.5101C357.063 94.5288 357.319 94.8 357.319 95.1281C357.319 95.4563 357.063 95.7274 356.735 95.7461C356.407 95.7274 356.151 95.4563 356.151 95.1281C356.151 94.8 356.407 94.5288 356.735 94.5101Z" fill="#003849"/>
<path fill-rule="evenodd" clip-rule="evenodd" d="M367.863 86.972C368.191 86.9907 368.447 87.2619 368.447 87.59C368.447 87.9182 368.191 88.1894 367.863 88.208C367.536 88.1894 367.279 87.9182 367.279 87.59C367.279 87.2619 367.536 86.9907 367.863 86.972Z" fill="#003849"/>
<path fill-rule="evenodd" clip-rule="evenodd" d="M367.369 84.124C367.697 84.1427 367.953 84.4138 367.953 84.742C367.953 85.0702 367.697 85.3413 367.369 85.36C367.041 85.3413 366.785 85.0702 366.785 84.742C366.785 84.4138 367.041 84.1427 367.369 84.124Z" fill="#003849"/>
<path fill-rule="evenodd" clip-rule="evenodd" d="M337.941 62.4901C338.269 62.5088 338.525 62.7799 338.525 63.1081C338.525 63.4363 338.269 63.7075 337.941 63.7261C337.614 63.7074 337.357 63.4363 337.357 63.1081C337.357 62.7799 337.614 62.5088 337.941 62.4901Z" fill="#003849"/>
<path fill-rule="evenodd" clip-rule="evenodd" d="M374.268 133.132C374.656 125.646 375.481 109.281 373.617 101.818C370.117 89.4711 365.224 97.0031 363.517 105.298C359.004 91.3061 353.629 77.3891 346.807 96.5291C344.407 94.8291 335.996 81.8741 331.891 88.4711C330.397 91.2011 337.9 99.7331 339.517 102.365C334.356 102.814 323.505 103.588 330.731 110.93C334.344 114.601 342.231 115.646 346.761 117.851C341.295 120.751 332.994 124.945 342.905 129.28C349.427 132.523 367.105 132.542 374.265 133.131" fill="#003849"/>
<path fill-rule="evenodd" clip-rule="evenodd" d="M374.237 133.149C364.02 122.34 354.016 111.321 344.461 99.9201C341.818 96.7675 339.214 93.5831 336.649 90.3671C336.149 89.7451 335.283 90.6251 335.774 91.2411C345.039 102.864 354.848 114.046 364.916 124.976C367.712 128.01 370.527 131.025 373.362 134.022C373.91 134.601 374.783 133.722 374.237 133.148" fill="#5596A5"/>
<path fill-rule="evenodd" clip-rule="evenodd" d="M352.655 95.5031C352.666 100.614 353.393 105.728 352.902 110.835L353.52 110.217C348.233 110.717 342.975 109.492 337.693 109.475C337.366 109.494 337.109 109.765 337.109 110.093C337.109 110.421 337.366 110.692 337.693 110.711C342.975 110.728 348.233 111.956 353.52 111.453C353.857 111.442 354.127 111.172 354.138 110.835C354.629 105.728 353.902 100.613 353.891 95.5031C353.873 95.1754 353.601 94.9191 353.273 94.9191C352.945 94.9191 352.674 95.1754 352.655 95.5031Z" fill="#5596A5"/>
<path fill-rule="evenodd" clip-rule="evenodd" d="M366.503 109.846C366.503 115.046 366.84 120.385 365.783 125.508L366.383 125.054C361.006 124.82 355.575 125.327 350.227 124.582C349.448 124.473 349.112 125.665 349.898 125.774C355.365 126.536 360.89 126.052 366.383 126.291C366.663 126.292 366.908 126.106 366.983 125.837C368.064 120.597 367.75 115.16 367.747 109.846C367.729 109.518 367.458 109.262 367.129 109.262C366.801 109.262 366.53 109.518 366.511 109.846" fill="#5596A5"/>
<path fill-rule="evenodd" clip-rule="evenodd" d="M357.726 103.973C358.226 103.99 358.623 104.4 358.623 104.901C358.623 105.401 358.226 105.812 357.726 105.828C357.225 105.812 356.828 105.401 356.828 104.901C356.828 104.4 357.225 103.99 357.726 103.973" fill="#5596A5"/>
<path fill-rule="evenodd" clip-rule="evenodd" d="M357.726 99.274C358.226 99.2905 358.623 99.7009 358.623 100.202C358.623 100.702 358.226 101.113 357.726 101.129C357.225 101.113 356.828 100.702 356.828 100.202C356.828 99.7009 357.225 99.2905 357.726 99.2741" fill="#5596A5"/>
<path fill-rule="evenodd" clip-rule="evenodd" d="M349.317 100.016C349.818 100.033 350.215 100.443 350.215 100.944C350.215 101.444 349.818 101.855 349.317 101.871C348.817 101.855 348.42 101.444 348.42 100.944C348.42 100.443 348.817 100.033 349.317 100.016" fill="#5596A5"/>
<path fill-rule="evenodd" clip-rule="evenodd" d="M336.952 105.209C337.453 105.226 337.85 105.636 337.85 106.137C337.85 106.637 337.453 107.048 336.952 107.064C336.452 107.048 336.055 106.637 336.055 106.137C336.055 105.636 336.452 105.226 336.952 105.209" fill="#5596A5"/>
<path fill-rule="evenodd" clip-rule="evenodd" d="M333.243 106.693C333.743 106.71 334.141 107.12 334.141 107.621C334.141 108.121 333.743 108.532 333.243 108.548C332.743 108.532 332.346 108.121 332.346 107.621C332.346 107.12 332.743 106.71 333.243 106.693" fill="#5596A5"/>
<path fill-rule="evenodd" clip-rule="evenodd" d="M353.274 118.316C353.775 118.333 354.172 118.743 354.172 119.244C354.172 119.744 353.775 120.155 353.274 120.171C352.774 120.155 352.377 119.744 352.377 119.244C352.377 118.743 352.774 118.333 353.274 118.316" fill="#5596A5"/>
<path fill-rule="evenodd" clip-rule="evenodd" d="M343.136 123.262C343.636 123.279 344.033 123.689 344.033 124.19C344.033 124.69 343.636 125.101 343.136 125.117C342.635 125.101 342.238 124.69 342.238 124.19C342.238 123.689 342.635 123.279 343.136 123.262" fill="#5596A5"/>
<path fill-rule="evenodd" clip-rule="evenodd" d="M367.864 101.747C368.365 101.764 368.762 102.174 368.762 102.675C368.762 103.175 368.365 103.586 367.864 103.602C367.364 103.586 366.967 103.175 366.967 102.675C366.967 102.174 367.364 101.764 367.864 101.747" fill="#5596A5"/>
<path fill-rule="evenodd" clip-rule="evenodd" d="M370.831 119.552C371.331 119.569 371.729 119.979 371.729 120.48C371.729 120.98 371.331 121.391 370.831 121.407C370.331 121.391 369.934 120.98 369.934 120.48C369.934 119.979 370.331 119.569 370.831 119.552" fill="#5596A5"/>
<path fill-rule="evenodd" clip-rule="evenodd" d="M160.703 134.081C160.332 128.641 159.467 123.695 161.198 118.381C161.693 117.021 162.929 112.322 165.031 113.312C166.515 113.93 166.267 117.887 166.762 119.123C168.988 116.65 168.988 112.323 171.708 110.097C175.417 106.882 174.181 112.697 174.308 114.797C176.781 113.684 180.614 106.142 183.952 107.255C187.043 108.368 179.377 115.539 178.512 117.023C179.996 117.27 181.603 116.281 183.212 116.405C185.561 116.529 186.427 118.012 184.201 119.496C181.852 120.856 175.793 120.732 174.801 123.696C176.285 124.438 182.838 122.83 182.467 126.045C182.096 128.394 176.161 128.765 174.43 129.26C169.608 130.496 165.53 132.475 161.076 134.453" fill="#4094A8"/>
<path fill-rule="evenodd" clip-rule="evenodd" d="M161.216 134.113C165.759 127.189 172.003 121.69 177.525 115.59C179.044 113.912 180.503 112.181 181.865 110.373C182.104 110.055 181.565 109.746 181.331 110.061C176.372 116.647 170.057 122.03 164.773 128.335C163.304 130.076 161.938 131.901 160.682 133.801C160.463 134.135 160.999 134.445 161.216 134.113" fill="#003849"/>
<path fill-rule="evenodd" clip-rule="evenodd" d="M170.914 113.967C170.218 116.783 169.923 119.683 170.038 122.581C170.04 122.677 170.085 122.767 170.161 122.826C170.238 122.884 170.337 122.905 170.43 122.881C174.243 122.073 177.769 120.321 181.43 119.048C181.803 118.918 181.642 118.321 181.265 118.448C177.6 119.721 174.073 121.473 170.265 122.281L170.656 122.581C170.541 119.739 170.829 116.894 171.511 114.132C171.588 113.744 170.992 113.577 170.911 113.968" fill="#003849"/>
<path fill-rule="evenodd" clip-rule="evenodd" d="M163.856 119.12C164.201 122.406 164.367 125.708 164.351 129.012C164.351 129.109 164.396 129.2 164.473 129.258C164.55 129.317 164.649 129.337 164.743 129.312C168.484 128.208 172.281 127.3 176.118 126.592C176.508 126.518 176.343 125.922 175.953 125.992C172.116 126.701 168.319 127.609 164.578 128.712L164.969 129.012C164.985 125.708 164.819 122.405 164.474 119.12C164.444 118.726 163.826 118.72 163.856 119.12Z" fill="#003849"/>
<path fill-rule="evenodd" clip-rule="evenodd" d="M140.731 98.0741C155.419 104.533 164.383 122.613 161.498 135.539C143.713 130.574 141.031 113.432 140.731 98.0741Z" fill="#003849"/>
<path fill-rule="evenodd" clip-rule="evenodd" d="M144.239 103.326C148.739 111.475 152.379 120.051 156.639 128.319C157.839 130.654 159.1 132.963 160.433 135.227C160.519 135.375 160.708 135.424 160.856 135.338C161.003 135.252 161.053 135.063 160.967 134.915C156.251 126.907 152.561 118.364 148.436 110.05C147.26 107.68 146.047 105.33 144.769 103.014C144.577 102.666 144.042 102.977 144.235 103.326" fill="#4094A8"/>
<path fill-rule="evenodd" clip-rule="evenodd" d="M144.299 110.762C145.978 111.413 147.607 112.188 149.171 113.08C149.255 113.127 149.355 113.134 149.444 113.098C149.532 113.062 149.6 112.987 149.626 112.895C150.026 110.957 149.757 108.957 150.007 107.002C150.058 106.609 149.439 106.612 149.389 107.002C149.146 108.902 149.42 110.851 149.029 112.731L149.483 112.546C147.872 111.63 146.194 110.834 144.464 110.166C144.089 110.03 143.927 110.628 144.299 110.766" fill="#4094A8"/>
<path fill-rule="evenodd" clip-rule="evenodd" d="M145.66 117.068C148.013 117.935 150.36 118.81 152.634 119.881C152.717 119.928 152.817 119.935 152.906 119.899C152.995 119.863 153.062 119.788 153.089 119.696C153.467 117.459 153.718 115.202 153.841 112.937C153.865 112.537 153.247 112.537 153.223 112.937C153.104 115.148 152.859 117.349 152.492 119.532L152.946 119.347C150.628 118.254 148.228 117.358 145.825 116.472C145.451 116.335 145.29 116.931 145.66 117.072" fill="#4094A8"/>
<path fill-rule="evenodd" clip-rule="evenodd" d="M149.121 124.61C151.48 125.6 153.893 126.447 156.292 127.33C156.457 127.372 156.624 127.276 156.673 127.114C157.392 125.177 157.853 123.154 158.043 121.097C158.096 120.704 157.477 120.708 157.425 121.097C157.235 123.099 156.782 125.067 156.076 126.95L156.457 126.734C154.057 125.851 151.644 125.003 149.286 124.014C148.92 123.86 148.76 124.458 149.121 124.614" fill="#4094A8"/>
<path fill-rule="evenodd" clip-rule="evenodd" d="M228.899 118.392C224.151 109.515 209.399 110.366 205.839 119.706C205.317 121.083 205.115 122.56 205.246 124.027C204.969 126.048 205.304 128.105 206.208 129.934C207.899 133.411 212.008 135.14 215.636 135.501C224.656 136.401 233.65 127.275 228.899 118.393" fill="#FFD066"/>
<path fill-rule="evenodd" clip-rule="evenodd" d="M216.767 125.239C217.614 125.272 218.843 125.149 219.073 124.139C219.136 123.3 218.763 122.488 218.087 121.989C217.373 121.301 216.39 120.965 215.405 121.072C214.226 121.384 213.314 122.32 213.033 123.506C212.497 124.78 212.673 126.241 213.496 127.351C214.362 128.272 215.551 128.822 216.814 128.886C219.849 129.199 222.964 127.597 223.557 124.405C224.296 120.422 220.719 117.105 217.147 116.259C213.883 115.489 210.469 116.548 209 119.738C207.49 123.017 208.27 127.277 210.042 130.306C210.928 131.92 212.444 133.094 214.228 133.549C216.251 133.938 218.337 133.848 220.319 133.287C222.264 132.848 224.034 131.839 225.402 130.387C226.432 129.173 227.1 127.694 227.328 126.118C227.828 122.998 227.006 119.334 224.503 117.23C223.908 116.733 223.235 116.341 222.51 116.069C222.138 115.927 221.977 116.525 222.345 116.669C228 118.823 228.275 127.902 223.614 131.169C222.055 132.198 220.271 132.836 218.414 133.03C216.617 133.379 214.757 133.187 213.069 132.479C211.653 131.663 210.566 130.379 209.995 128.848C209.289 127.242 208.894 125.517 208.831 123.764C208.773 120.946 209.994 117.937 212.841 116.957C216.174 115.991 219.757 117.197 221.829 119.982C222.892 121.345 223.262 123.125 222.829 124.798C222.423 126.172 221.414 127.288 220.088 127.829C218.188 128.603 215.038 128.651 213.778 126.702C212.72 125.065 213.755 121.343 216.119 121.682C216.909 121.822 217.616 122.26 218.095 122.905C218.42 123.339 218.739 124.052 218.154 124.412C217.721 124.612 217.24 124.686 216.768 124.624C216.368 124.608 216.368 125.224 216.768 125.242" fill="#003849"/>
<path fill-rule="evenodd" clip-rule="evenodd" d="M217.699 102.278V110.15C217.699 110.321 217.923 110.459 218.199 110.459C218.475 110.459 218.699 110.321 218.699 110.15V102.278C218.699 102.107 218.475 101.969 218.199 101.969C217.923 101.969 217.699 102.107 217.699 102.278Z" fill="#003849"/>
<path fill-rule="evenodd" clip-rule="evenodd" d="M208.262 109.267L210.192 111.201C210.313 111.322 210.509 111.322 210.629 111.201C210.75 111.08 210.75 110.884 210.629 110.763L208.696 108.829C208.575 108.708 208.379 108.709 208.258 108.83C208.138 108.951 208.138 109.146 208.259 109.267" fill="#003849"/>
<path fill-rule="evenodd" clip-rule="evenodd" d="M228.287 109.243L225.939 111.591C225.831 111.714 225.836 111.899 225.952 112.015C226.067 112.131 226.253 112.137 226.376 112.029L228.724 109.681C228.832 109.558 228.826 109.373 228.711 109.257C228.595 109.141 228.41 109.135 228.287 109.243Z" fill="#003849"/>
<path fill-rule="evenodd" clip-rule="evenodd" d="M198.179 118.598C199.845 119.154 201.554 119.569 203.289 119.841C203.678 119.901 203.846 119.306 203.454 119.241C201.719 118.97 200.01 118.554 198.344 117.998C197.965 117.872 197.803 118.469 198.179 118.598Z" fill="#003849"/>
<path fill-rule="evenodd" clip-rule="evenodd" d="M233.145 120.256C234.845 119.977 236.555 119.825 238.255 119.566C238.647 119.506 238.48 118.911 238.09 118.966C236.39 119.226 234.677 119.377 232.98 119.656C232.589 119.721 232.755 120.316 233.145 120.256Z" fill="#003849"/>
<path fill-rule="evenodd" clip-rule="evenodd" d="M233.338 127.924C234.078 127.924 234.809 128.102 235.548 128.106C235.719 128.105 235.856 127.923 235.856 127.697C235.856 127.472 235.719 127.289 235.548 127.289C234.809 127.289 234.078 127.109 233.338 127.106C233.228 127.106 233.125 127.183 233.07 127.31C233.014 127.437 233.014 127.593 233.07 127.72C233.125 127.846 233.228 127.924 233.338 127.924" fill="#003849"/>
<path fill-rule="evenodd" clip-rule="evenodd" d="M200.609 128.242C201.559 128.265 202.51 128.199 203.453 128.046C203.617 127.985 203.714 127.761 203.669 127.544C203.62 127.331 203.453 127.205 203.289 127.259C202.4 127.397 201.504 127.453 200.609 127.427C200.438 127.427 200.3 127.609 200.3 127.834C200.3 128.06 200.438 128.242 200.609 128.242" fill="#003849"/>
<path fill-rule="evenodd" clip-rule="evenodd" d="M54.0777 27.4381C53.3587 24.2001 50.7536 17.3341 46.6197 17.4561C41.7727 17.6021 43.1717 26.7061 43.4067 29.5801C43.5357 31.1581 46.0066 31.1711 45.8797 29.5801C45.8477 29.1801 45.7187 27.8971 45.6416 26.3901C45.9306 26.5844 46.2974 26.6219 46.6197 26.4901C47.9776 26.0061 49.3847 25.7521 50.7107 25.1901C51.1316 26.1267 51.4607 27.1019 51.6936 28.1021C52.0397 29.6581 54.4237 29.0021 54.0777 27.4441M45.9627 24.1021C45.8251 24.1519 45.697 24.2246 45.5837 24.3171C45.5837 21.9711 45.8396 19.7771 46.8497 19.9171C48.0387 20.0821 48.9937 21.7571 49.6267 22.9771C48.4577 23.4911 47.1637 23.6771 45.9627 24.1011" fill="#D67676"/>
<path fill-rule="evenodd" clip-rule="evenodd" d="M121.5 88.501C120.113 89.514 118.567 89.526 117.629 87.947C116.629 86.258 117.855 84.82 119.486 84.331C120.118 84.1282 120.477 83.4633 120.301 82.8235C120.125 82.1838 119.475 81.7967 118.829 81.946C115.773 82.861 113.865 85.746 115.315 88.836C115.931 90.197 117.141 91.1981 118.593 91.5497C120.045 91.9013 121.578 91.5643 122.749 90.636C124.024 89.707 122.792 87.559 121.501 88.501" fill="#4094A8"/>
<path fill-rule="evenodd" clip-rule="evenodd" d="M71.7934 67.613C71.34 67.6287 70.9805 68.0008 70.9805 68.4545C70.9805 68.9083 71.34 69.2804 71.7934 69.296C72.2469 69.2804 72.6064 68.9083 72.6064 68.4545C72.6064 68.0008 72.2469 67.6287 71.7934 67.613Z" fill="#4094A8"/>
<path fill-rule="evenodd" clip-rule="evenodd" d="M73.3042 65.0891C72.8508 65.1048 72.4912 65.4769 72.4912 65.9306C72.4912 66.3843 72.8508 66.7565 73.3042 66.7721C73.7576 66.7565 74.1171 66.3843 74.1171 65.9306C74.1171 65.4769 73.7576 65.1048 73.3042 65.0891Z" fill="#4094A8"/>
<path fill-rule="evenodd" clip-rule="evenodd" d="M74.4829 67.9491C74.0294 67.9648 73.6699 68.3369 73.6699 68.7906C73.6699 69.2443 74.0294 69.6165 74.4829 69.6321C74.9363 69.6165 75.2958 69.2443 75.2958 68.7906C75.2958 68.3369 74.9363 67.9648 74.4829 67.9491Z" fill="#4094A8"/>
<path fill-rule="evenodd" clip-rule="evenodd" d="M313.908 99.1141C313.454 99.1298 313.095 99.5019 313.095 99.9556C313.095 100.409 313.454 100.781 313.908 100.797C314.361 100.781 314.72 100.409 314.72 99.9556C314.72 99.502 314.361 99.1299 313.908 99.1141Z" fill="#4094A8"/>
<path fill-rule="evenodd" clip-rule="evenodd" d="M315.425 96.5861C314.972 96.6017 314.612 96.9738 314.612 97.4276C314.612 97.8813 314.972 98.2534 315.425 98.2691C315.879 98.2534 316.238 97.8813 316.238 97.4276C316.238 96.9738 315.879 96.6017 315.425 96.5861" fill="#4094A8"/>
<path fill-rule="evenodd" clip-rule="evenodd" d="M316.6 99.446C316.147 99.4617 315.787 99.8338 315.787 100.288C315.787 100.741 316.147 101.113 316.6 101.129C317.053 101.113 317.413 100.741 317.413 100.288C317.413 99.8338 317.053 99.4617 316.6 99.4461" fill="#4094A8"/>
<g opacity="0.3">
<mask id="mask2_3258_16" style="mask-type:luminance" maskUnits="userSpaceOnUse" x="172" y="56" width="49" height="27">
<rect x="172.572" y="56.9701" width="48.029" height="25.043" fill="white"/>
</mask>
<g mask="url(#mask2_3258_16)">
<path fill-rule="evenodd" clip-rule="evenodd" d="M206.172 81.5561C197.669 82.1973 189.129 82.1658 180.631 81.4621C170.563 80.6211 169.412 69.1751 180.107 72.7151C174.941 60.1941 185.133 53.6431 192.651 66.2051C193.561 52.1051 211.322 55.0931 207.058 68.8001C212.485 65.8671 222.2 67.7111 220.373 76.4181C219.273 82.1131 210.873 81.6351 206.173 81.5561" fill="#90CCD6"/>
</g>
</g>
</g>
</g>
</svg>
